<?xml version="1.0" standalone="no"?>
<!DOCTYPE svg PUBLIC "-//W3C//DTD SVG 20010904//EN"
 "http://www.w3.org/TR/2001/REC-SVG-20010904/DTD/svg10.dtd">
<svg version="1.0" xmlns="http://www.w3.org/2000/svg"
 width="45" height="60" viewBox="0 0 1216.000000 1280.000000"
 preserveAspectRatio="xMidYMid meet">
<metadata>
Created by potrace 1.15, written by Peter Selinger 2001-2017
</metadata>
<g transform="translate(0.000000,1280.000000) scale(0.100000,-0.100000)"
fill="#000000" stroke="none">
<path d="M9803 12790 c-34 -14 -72 -80 -84 -146 -6 -32 -14 -65 -18 -73 -7
-14 -69 -33 -389 -121 -147 -41 -152 -43 -136 -61 20 -23 39 -15 -200 -80
-351 -94 -330 -76 -550 -457 l-118 -203 -31 6 c-50 9 -822 -40 -1862 -119
-110 -9 -274 -20 -365 -26 -91 -6 -217 -15 -280 -21 -63 -5 -230 -19 -370 -29
-262 -21 -641 -54 -1590 -140 -300 -27 -680 -61 -845 -74 -165 -14 -462 -39
-660 -56 -321 -26 -723 -59 -1325 -105 -341 -27 -543 -45 -605 -56 -77 -13
-135 -51 -135 -89 0 -16 -19 -54 -50 -96 -71 -100 -72 -100 -113 -118 -66 -27
-71 -53 -64 -330 3 -146 10 -243 16 -249 6 -6 38 -13 71 -15 33 -2 60 -8 60
-13 0 -5 -4 -9 -9 -9 -11 0 -111 -134 -133 -180 -48 -98 17 -239 135 -291 l55
-24 6 -65 c3 -36 13 -184 21 -330 8 -146 17 -292 19 -324 4 -49 -1 -73 -25
-133 -41 -103 -38 -117 25 -148 19 -10 22 -22 29 -145 10 -173 4 -259 -22
-340 -29 -85 -25 -119 16 -145 l31 -20 4 -135 c3 -122 0 -145 -25 -240 -15
-58 -25 -115 -22 -127 3 -13 18 -29 34 -38 l29 -15 4 -137 c5 -208 15 -219
200 -230 62 -3 118 -10 124 -15 6 -4 19 -5 28 -2 23 9 318 -16 333 -28 7 -6
20 -7 29 -4 23 9 316 -13 330 -25 6 -5 25 -6 41 -3 42 8 315 -15 330 -28 9 -7
17 -7 26 -1 7 6 46 7 97 2 47 -4 114 -8 149 -8 46 -1 70 -6 83 -18 15 -13 21
-14 27 -5 10 17 307 -5 326 -25 16 -16 32 -17 37 -2 6 17 310 -8 324 -27 13
-16 31 -18 36 -4 2 7 53 7 157 1 120 -8 157 -14 172 -27 15 -14 21 -14 34 -4
22 18 296 -5 308 -26 10 -17 34 -18 39 -2 7 19 307 -8 331 -29 16 -15 18 -15
30 0 11 14 27 15 162 5 127 -9 153 -14 172 -31 19 -17 25 -18 38 -7 25 21 272
5 306 -20 23 -16 28 -17 40 -4 12 12 36 12 154 3 123 -10 142 -14 158 -33 17
-20 18 -21 32 -2 13 18 21 18 157 7 124 -11 145 -15 159 -33 14 -18 17 -18 31
-5 12 13 33 14 134 6 168 -12 183 -15 204 -41 l20 -23 17 20 c17 20 23 21 154
10 112 -8 141 -14 159 -30 17 -16 24 -17 40 -7 18 11 25 2 86 -126 107 -221
365 -780 716 -1547 262 -573 272 -601 261 -707 l-5 -55 -102 -11 c-206 -23
-323 -72 -491 -207 -106 -85 -177 -126 -240 -138 -35 -8 -372 -38 -1190 -107
-324 -27 -671 -57 -770 -65 -193 -17 -862 -68 -1110 -85 -82 -6 -204 -15 -270
-20 -66 -5 -334 -23 -595 -40 -261 -16 -540 -37 -619 -46 -117 -13 -148 -14
-167 -3 -20 10 -35 9 -86 -5 -125 -35 -304 -133 -370 -202 -56 -60 -55 -50
-108 -701 -17 -200 -30 -393 -30 -431 0 -107 22 -156 103 -235 l71 -68 -37
-30 c-50 -41 -70 -81 -56 -111 8 -19 5 -35 -16 -82 -93 -210 -65 -484 72 -710
112 -183 361 -360 508 -361 43 0 80 8 129 28 87 35 126 62 203 138 117 116
156 229 155 445 l0 131 48 23 c63 29 105 73 125 130 16 44 36 249 27 282 -7
27 -76 26 2188 58 382 5 823 15 980 20 157 6 461 15 675 20 215 5 586 15 825
21 1018 25 1061 26 1071 7 5 -9 9 -31 9 -48 0 -24 6 -33 27 -41 37 -14 90 -3
103 21 5 10 10 34 10 53 l0 34 83 6 c45 4 145 7 222 7 77 0 292 5 478 11 185
7 340 10 342 7 3 -3 9 -25 13 -48 7 -42 16 -52 57 -65 36 -12 -95 -120 -336
-281 -157 -104 -225 -155 -227 -170 -2 -11 11 -37 28 -58 16 -22 30 -43 30
-47 0 -5 -28 -51 -63 -102 -87 -127 -167 -352 -167 -468 0 -80 28 -190 70
-275 61 -124 176 -223 342 -292 52 -22 78 -27 148 -27 76 1 94 5 168 37 117
51 184 93 264 167 86 79 146 163 199 277 41 86 45 102 78 332 6 40 24 92 51
145 36 70 43 95 49 167 4 47 13 95 20 108 7 14 13 73 15 145 l3 122 -59 115
c-32 63 -72 127 -88 142 -31 29 -37 56 -20 89 20 36 40 23 40 -25 0 -55 15
-68 82 -70 l53 -1 7 134 c5 74 13 140 18 147 8 8 8 14 0 19 -13 8 -13 110 2
497 15 410 16 402 -106 685 -154 356 -306 707 -316 728 -12 25 -246 578 -352
830 -216 516 -450 1055 -513 1182 l-71 143 35 0 c67 0 76 7 117 93 l39 82 45
2 c25 2 60 3 79 3 19 0 45 7 58 15 21 14 23 23 23 87 0 39 -5 85 -11 102 -9
27 1 73 91 381 55 193 133 460 171 595 121 423 343 1167 734 2465 192 637 222
736 226 740 7 6 304 22 311 16 9 -8 -52 -248 -84 -327 -28 -71 -45 -81 -165
-95 -151 -17 -153 -17 -153 -43 0 -53 56 -57 234 -19 129 27 154 65 223 338
24 95 42 144 54 154 20 14 26 57 9 63 -6 2 13 91 45 213 68 260 73 275 90 275
23 0 28 20 15 59 -11 34 -8 52 24 174 19 74 43 154 52 176 30 77 73 99 338
176 143 42 149 43 182 28 28 -14 36 -14 49 -3 9 8 118 47 242 87 124 40 236
79 249 88 32 21 74 78 90 122 30 85 8 166 -65 237 -64 62 -132 68 -305 25 -72
-18 -91 -19 -240 -9 -148 10 -846 71 -979 86 -66 8 -64 4 -70 125 -4 86 -28
137 -72 157 -31 14 -578 16 -612 2z m-459 -524 c120 -93 118 -89 40 -120 -75
-30 -91 -32 -184 -22 -36 4 -70 3 -75 -1 -18 -13 -72 -106 -86 -145 -15 -43
-16 -44 -66 -23 -63 27 -101 20 -143 -24 -31 -32 -40 -51 -49 -104 -6 -35 -9
-77 -6 -93 3 -16 2 -34 -2 -41 -8 -11 -226 -33 -331 -33 -40 0 -43 2 -36 23
14 47 236 433 263 458 16 15 50 35 76 45 50 18 480 141 504 143 7 0 50 -28 95
-63z m985 -33 c-1 -40 -24 -98 -37 -97 -7 1 -22 2 -33 3 -19 1 -21 5 -17 46 7
56 22 75 59 75 25 0 29 -4 28 -27z m374 -9 c166 -19 303 -37 305 -39 2 -2 -18
-10 -45 -18 -26 -8 -129 -40 -228 -71 -301 -96 -465 -133 -488 -110 -8 8 42
104 55 104 19 0 58 104 52 138 -8 41 -28 41 349 -4z m-477 0 c-18 -69 -18 -85
-2 -108 14 -22 14 -29 0 -68 -23 -66 -49 -88 -104 -88 -25 0 -71 4 -101 10
-30 5 -103 16 -164 24 -92 12 -112 18 -128 37 -13 16 -16 31 -11 53 3 17 7 32
8 33 1 1 69 23 151 48 83 26 173 55 200 65 28 10 74 19 104 19 52 1 53 1 47
-25z m937 -106 c12 -6 68 -46 124 -89 85 -65 100 -80 85 -87 -9 -5 -84 -28
-167 -52 -178 -51 -193 -58 -236 -109 -43 -50 -69 -119 -114 -300 -19 -80 -38
-147 -41 -150 -7 -8 -294 -14 -294 -7 0 4 10 28 22 54 29 59 31 159 4 214 -51
105 -186 117 -264 22 l-28 -34 -67 22 c-37 12 -66 27 -65 33 9 33 98 184 124
210 40 40 104 64 354 132 162 43 522 145 538 152 2 0 13 -4 25 -11z m-1659
-22 c-7 -17 -64 -23 -64 -6 0 8 60 31 68 25 1 -1 0 -10 -4 -19z m161 -110 c31
-23 112 -45 272 -75 l148 -27 9 -36 c8 -30 4 -43 -25 -94 -19 -32 -40 -71 -48
-86 -10 -20 -20 -26 -35 -23 -41 9 -572 135 -669 159 -54 13 -101 26 -104 30
-7 7 24 150 39 179 10 20 33 21 143 5 95 -13 128 -7 163 32 15 15 38 30 52 32
23 3 26 -1 30 -39 4 -26 14 -48 25 -57z m-465 61 c0 -12 -12 -60 -41 -170 -10
-37 -10 -37 -52 -31 -23 4 -43 8 -44 9 -3 1 46 149 62 188 9 21 75 25 75 4z
m-85 -322 c0 -16 -8 -21 -42 -23 -37 -3 -43 0 -43 16 0 27 10 33 50 30 27 -2
35 -7 35 -23z m278 -31 c168 -33 430 -91 520 -115 20 -5 37 -14 37 -18 0 -9
-126 -228 -140 -244 -4 -5 -44 1 -89 13 -73 20 -81 25 -75 42 21 67 22 182 2
194 -34 21 -84 -33 -113 -123 -10 -29 -19 -53 -21 -53 -14 0 -371 104 -378
110 -4 5 -2 37 6 71 12 59 15 64 43 69 24 4 31 11 33 33 3 22 -1 30 -17 34
-24 6 -28 23 -5 23 8 0 97 -16 197 -36z m-298 -64 c7 -11 -22 -107 -33 -114
-4 -2 -28 3 -54 10 l-47 14 13 43 c10 37 16 43 46 48 55 10 68 10 75 -1z
m-355 -19 c0 -5 -46 -11 -102 -15 -57 -3 -143 -9 -193 -12 -49 -4 -86 -3 -82
2 4 4 76 13 160 20 203 15 217 15 217 5z m-30 -64 c0 -16 -77 -294 -85 -307
-4 -6 -56 -10 -126 -10 l-121 0 6 28 c4 15 24 86 45 157 l38 130 79 6 c145 10
164 10 164 -4z m-283 -29 c-8 -41 -76 -290 -79 -293 -2 -2 -49 -6 -105 -10
-74 -6 -103 -4 -103 4 0 12 114 208 162 279 28 40 31 42 80 42 47 0 50 -1 45
-22z m-297 -1 c0 -36 -65 -237 -88 -274 l-27 -43 -112 0 c-99 0 -113 2 -113
17 0 9 16 78 36 154 l36 137 97 7 c53 3 105 7 116 9 44 7 55 5 55 -7z m94 1
c-25 -42 -86 -129 -89 -126 -8 8 32 120 46 129 22 13 51 11 43 -3z m1951 -3
l52 -16 7 -52 c3 -29 6 -70 6 -93 l0 -41 -61 -7 c-34 -3 -86 -6 -116 -6 -53 0
-53 0 -47 28 4 15 17 54 29 87 50 133 41 126 130 100z m-2345 -9 c0 -17 -81
-301 -87 -306 -9 -9 -263 -20 -263 -12 0 11 84 287 89 294 5 5 68 12 244 27 9
0 17 -1 17 -3z m1785 -103 c-7 -37 -16 -46 -40 -37 -19 8 -15 35 18 104 l21
45 4 -40 c2 -21 1 -54 -3 -72z m-774 87 c14 0 11 -17 -23 -132 -30 -105 -32
-108 -60 -108 -15 0 -28 5 -28 11 0 13 60 220 67 232 3 5 12 6 20 3 8 -3 19
-6 24 -6z m-1314 -17 c-2 -10 -21 -79 -42 -154 l-37 -136 -67 -7 c-36 -3 -98
-6 -137 -6 l-71 0 45 149 46 149 95 7 c53 3 103 8 111 9 43 10 62 6 57 -11z
m-297 -11 c0 -12 -84 -288 -89 -294 -7 -8 -290 -32 -296 -26 -5 5 51 247 65
283 7 18 17 25 37 26 16 0 37 4 48 8 18 7 235 10 235 3z m-360 -37 c0 -23 -61
-279 -69 -287 -6 -6 -312 -28 -319 -22 -4 2 69 286 75 294 4 5 210 26 281 29
23 1 32 -3 32 -14z m-361 -57 c-6 -24 -21 -91 -35 -150 l-25 -107 -62 -5
c-105 -9 -247 -15 -247 -10 0 14 62 279 66 284 6 5 201 26 270 29 l42 1 -9
-42z m2448 16 c3 -9 -2 -40 -11 -70 -16 -49 -20 -54 -47 -54 -34 0 -33 -4 -14
51 28 79 58 109 72 73z m-2797 -21 c-1 -10 -13 -76 -28 -148 l-27 -130 -149
-8 c-81 -5 -150 -6 -153 -3 -6 6 47 268 56 278 7 8 164 24 254 27 39 1 47 -2
47 -16z m-361 -116 c-10 -57 -22 -121 -27 -142 l-8 -40 -74 -6 c-182 -16 -240
-16 -240 -1 0 7 12 72 27 142 l26 129 76 6 c42 3 85 7 96 9 11 2 48 4 81 5
l61 1 -18 -103z m4145 69 c-3 -14 -13 -26 -20 -26 -12 0 -12 5 1 31 19 36 29
33 19 -5z m-4487 -23 c-3 -16 -13 -78 -23 -140 l-18 -112 -50 -5 c-28 -3 -102
-8 -165 -10 l-113 -6 7 38 c4 20 15 82 24 136 10 55 22 101 27 103 16 5 192
20 258 22 l59 1 -6 -27z m3761 5 c-4 -31 -48 -39 -48 -10 0 20 12 30 38 31 8
1 12 -8 10 -21z m-4118 -15 c0 -31 -37 -253 -42 -259 -6 -6 -318 -27 -323 -22
-2 2 6 63 18 135 l21 132 31 7 c16 4 84 10 150 14 66 4 126 8 133 8 6 1 12 -6
12 -15z m4195 -1 c-8 -8 -45 -10 -45 -2 0 13 11 18 31 13 11 -3 17 -8 14 -11z
m-4579 -166 c-8 -65 -16 -119 -18 -121 -4 -4 -322 -22 -327 -18 -2 1 5 61 14
133 17 119 20 130 39 131 12 0 84 6 161 12 123 11 140 10 143 -3 1 -9 -4 -69
-12 -134z m6074 122 c1 -7 -25 -115 -56 -239 l-57 -226 -75 -7 c-41 -3 -114
-6 -163 -6 l-87 0 34 133 c19 72 43 160 55 194 20 60 22 62 57 65 30 2 38 8
40 26 3 17 -2 22 -17 22 -12 0 -21 6 -21 14 0 11 21 16 83 20 45 4 100 8 122
9 22 2 50 4 63 5 12 1 22 -4 22 -10z m-6423 -40 c-3 -18 -11 -77 -18 -130 -9
-79 -15 -98 -28 -98 -9 0 -79 -5 -155 -10 -77 -6 -141 -8 -143 -6 -2 2 4 60
13 129 l17 125 96 7 c53 4 101 8 106 10 6 2 34 4 64 4 l53 1 -5 -32z m5981 -3
c-8 -8 -228 -7 -230 1 -2 5 49 14 112 19 94 8 116 8 118 -3 2 -8 2 -15 0 -17z
m-6352 -129 c-8 -65 -16 -119 -18 -122 -6 -6 -308 -27 -313 -22 -9 8 19 250
29 254 6 2 79 10 161 17 106 9 151 9 153 2 1 -6 -4 -64 -12 -129z m5944 120
c0 -10 -15 -15 -50 -18 -34 -2 -50 1 -50 9 0 13 21 20 68 22 21 1 32 -4 32
-13z m-6295 -83 c-4 -38 -10 -95 -14 -128 l-6 -60 -85 -6 c-47 -4 -120 -9
-164 -12 l-79 -6 7 97 c4 53 9 112 13 130 5 31 6 32 62 33 31 1 83 5 116 9 33
4 82 8 108 9 l49 1 -7 -67z m6028 60 c-7 -2 -21 -2 -30 0 -10 3 -4 5 12 5 17
0 24 -2 18 -5z m-343 -13 c0 -5 -7 -10 -15 -10 -8 0 -15 5 -15 10 0 6 7 10 15
10 8 0 15 -4 15 -10z m83 3 c-7 -2 -19 -2 -25 0 -7 3 -2 5 12 5 14 0 19 -2 13
-5z m-170 -10 c-7 -2 -19 -2 -25 0 -7 3 -2 5 12 5 14 0 19 -2 13 -5z m-5967
-100 c-9 -135 -13 -150 -39 -156 -12 -3 -86 -9 -163 -12 l-142 -7 5 68 c3 38
8 94 12 124 l6 55 64 7 c35 4 66 10 69 13 3 3 48 5 100 5 l94 0 -6 -97z m6864
88 c0 -12 -60 -213 -96 -324 -23 -68 -29 -78 -48 -75 -27 4 -27 4 45 226 51
153 63 182 80 182 10 0 19 -4 19 -9z m-1267 -8 c-7 -2 -19 -2 -25 0 -7 3 -2 5
12 5 14 0 19 -2 13 -5z m1167 -11 c0 -9 -26 -98 -58 -197 -55 -168 -60 -180
-84 -183 l-26 -3 59 182 c54 167 78 219 101 219 4 0 8 -8 8 -18z m229 -2 c23
-6 41 -16 41 -23 0 -7 -24 -86 -53 -177 l-53 -165 -67 -3 c-37 -2 -67 1 -67 5
0 9 100 308 119 357 7 18 16 26 26 23 7 -3 32 -11 54 -17z m-1664 0 c-3 -5
-25 -10 -48 -10 -31 0 -38 3 -27 10 20 13 83 13 75 0z m1265 4 c0 -13 -42
-152 -82 -271 l-41 -123 -33 0 c-23 0 -34 5 -34 14 0 34 80 288 105 335 24 43
33 51 57 51 15 0 28 -3 28 -6z m-6964 -121 c-4 -65 -11 -121 -14 -125 -7 -7
-218 -28 -286 -28 l-39 0 6 116 c3 64 7 118 9 120 3 2 74 10 159 18 85 7 158
14 163 15 5 0 6 -49 2 -116z m6754 104 c0 -8 -20 -45 -45 -83 -50 -77 -54 -73
-24 27 18 60 24 69 45 69 13 0 24 -6 24 -13z m-254 -14 c-3 -10 -30 -98 -60
-197 -30 -98 -57 -181 -60 -183 -2 -2 -15 -3 -29 -1 l-25 3 57 180 c72 229 66
215 96 215 21 0 25 -4 21 -17z m82 5 c-3 -7 -31 -97 -63 -200 -37 -119 -64
-188 -72 -188 -7 0 -13 5 -13 12 0 7 28 97 62 200 41 123 67 188 76 188 8 0
12 -6 10 -12z m38 -142 c-25 -80 -51 -148 -57 -152 -8 -4 -9 1 -4 17 42 133
88 276 92 282 3 5 7 6 10 3 3 -2 -16 -70 -41 -150z m-296 131 c0 -17 -33 -136
-76 -274 -35 -112 -35 -113 -66 -113 -20 0 -29 4 -25 13 2 6 30 93 62 192 31
99 59 183 62 188 7 12 43 8 43 -6z m71 -49 c-46 -158 -95 -314 -104 -325 -10
-14 -47 -18 -47 -5 0 7 98 329 115 380 2 6 15 12 29 12 l25 0 -18 -62z m-167
25 c-4 -16 -30 -102 -58 -192 -47 -149 -72 -199 -91 -179 -6 5 98 347 116 380
5 10 16 18 25 18 11 0 13 -7 8 -27z m-6596 -100 l-3 -118 -50 -6 c-27 -3 -103
-9 -167 -13 l-118 -7 0 98 c0 148 -6 139 113 151 56 5 130 10 165 11 l63 1 -3
-117z m5695 91 c31 -3 57 -11 57 -18 0 -19 -101 -381 -108 -387 -4 -4 -63 -9
-131 -13 l-123 -6 7 46 c7 46 77 311 95 358 13 36 45 39 203 20z m477 4 c0
-19 -107 -378 -114 -385 -21 -21 -14 29 29 194 26 104 50 191 52 196 7 12 33
8 33 -5z m93 -160 c-72 -225 -69 -218 -93 -218 -11 0 -20 2 -20 4 0 4 106 350
115 374 2 6 15 12 29 12 l24 0 -55 -172z m-229 100 c-33 -157 -74 -321 -81
-328 -4 -5 -50 -11 -102 -15 l-94 -7 7 35 c4 20 31 113 62 206 l55 171 83 0
84 0 -14 -62z m-6406 -65 l-3 -118 -70 -6 c-38 -3 -114 -9 -168 -13 l-98 -7 3
118 3 118 115 11 c63 6 139 12 168 13 l53 1 -3 -117z m6212 111 c0 -4 -25 -94
-56 -200 -56 -190 -57 -194 -84 -194 l-27 0 33 123 c19 67 43 157 55 200 20
73 23 77 50 77 16 0 29 -3 29 -6z m460 -189 c-45 -140 -70 -201 -70 -170 0 20
115 356 118 343 1 -7 -20 -85 -48 -173z m-940 168 c0 -3 -50 -98 -111 -210
-105 -192 -113 -203 -140 -203 -34 0 -37 -23 22 210 55 214 45 198 126 203 37
2 76 4 86 5 9 1 17 -1 17 -5z m-6100 -85 c0 -46 -3 -99 -6 -119 l-6 -36 -112
-7 c-61 -4 -135 -9 -163 -13 l-53 -6 0 117 c0 64 1 116 3 117 8 3 250 26 290
27 l47 2 0 -82z m5890 62 c0 -22 -92 -375 -99 -383 -4 -4 -40 -11 -80 -14
l-72 -6 6 29 c19 84 87 342 95 362 9 20 16 22 80 22 42 0 70 -4 70 -10z m-190
-27 c-5 -16 -25 -97 -45 -181 -48 -205 -47 -202 -90 -202 -23 0 -35 5 -35 14
0 21 56 251 80 329 l21 67 39 0 c38 0 39 -1 30 -27z m-104 0 c-2 -10 -26 -98
-52 -196 -39 -147 -52 -180 -68 -187 -37 -13 -256 -19 -256 -6 0 6 23 96 50
200 28 103 50 190 50 192 0 3 93 9 208 12 66 2 73 0 68 -15z m-5971 -99 c4
-58 5 -108 2 -111 -9 -9 -257 -27 -264 -19 -4 4 -9 54 -11 111 l-4 103 43 6
c87 11 105 13 165 15 l62 1 7 -106z m5619 -11 c-13 -60 -31 -146 -40 -193 -9
-47 -20 -88 -23 -92 -7 -8 -272 -30 -279 -23 -11 11 71 368 90 392 6 7 44 14
96 16 48 1 108 4 133 5 l46 2 -23 -107z m-315 -45 c-16 -73 -33 -158 -40 -189
-14 -73 -17 -76 -63 -84 l-39 -8 6 50 c6 55 62 299 77 338 8 21 16 25 49 25
l39 0 -29 -132z m-99 110 c0 -24 -73 -373 -80 -381 -3 -4 -50 -11 -103 -15
l-97 -8 1 31 c0 16 19 107 42 200 l42 170 50 6 c93 11 145 10 145 -3z m-230
-7 c0 -19 -78 -379 -84 -390 -11 -17 -166 -15 -166 3 0 24 80 370 88 378 4 4
32 9 62 11 30 2 65 4 78 5 12 1 22 -2 22 -7z m1537 -146 c-25 -108 -37 -141
-50 -143 -23 -5 -22 3 14 137 28 107 59 179 65 156 2 -6 -11 -73 -29 -150z
m-1911 -67 c-22 -106 -44 -196 -49 -199 -5 -4 -55 -10 -111 -14 -55 -3 -111
-9 -123 -12 -19 -4 -23 -1 -23 18 0 26 68 380 74 386 4 4 258 20 267 16 3 -1
-13 -89 -35 -195z m160 175 c-4 -16 -19 -101 -35 -190 -16 -89 -32 -167 -36
-173 -3 -5 -29 -10 -56 -10 -43 0 -50 3 -45 18 2 9 21 99 42 200 l37 182 49 0
c49 0 49 0 44 -27z m-461 -15 c-3 -13 -20 -103 -40 -202 -19 -98 -36 -180 -37
-181 -4 -4 -250 -25 -287 -25 l-28 0 13 83 c8 45 24 136 37 202 l23 119 44 12
c25 7 98 12 163 13 117 1 117 1 112 -21z m-415 -20 c0 -7 -12 -96 -27 -197
-24 -161 -30 -184 -48 -191 -30 -11 -245 -23 -245 -14 0 15 70 387 73 390 3 3
167 21 215 23 19 0 32 -4 32 -11z m65 -10 c-6 -29 -65 -366 -65 -373 0 -3 -7
-5 -15 -5 -8 0 -15 3 -15 8 0 13 60 356 66 375 8 26 35 22 29 -5z m-351 -26
c-2 -9 -15 -91 -29 -182 -15 -91 -29 -173 -31 -182 -4 -15 -17 -18 -69 -18
l-64 0 4 28 c9 51 55 354 55 362 0 8 115 19 132 12 3 -1 4 -10 2 -20z m-192
-184 c-13 -106 -27 -196 -31 -200 -3 -4 -42 -8 -86 -9 -63 -1 -80 1 -78 12 7
54 56 366 59 377 2 8 28 12 82 12 l79 0 -25 -192z m-162 179 c0 -17 -60 -390
-63 -393 -2 -2 -48 -7 -102 -11 l-98 -6 6 24 c3 13 15 94 27 179 29 214 23
198 73 203 61 5 157 8 157 4z m-240 -39 c0 -18 -9 -105 -20 -193 -11 -88 -20
-166 -20 -172 0 -13 -90 -19 -101 -8 -4 3 44 368 50 392 1 2 47 9 74 12 13 1
17 -7 17 -31z m-120 15 c-1 -5 -13 -96 -28 -203 l-28 -195 -129 -7 c-71 -4
-131 -5 -134 -2 -3 2 3 75 12 162 10 86 17 172 17 190 0 18 6 35 13 37 6 2 64
8 127 13 63 5 123 10 133 11 9 0 17 -2 17 -6z m-350 -35 c-1 -31 -48 -379 -51
-382 -2 -2 -75 -7 -162 -11 l-158 -8 5 24 c3 13 13 94 22 179 9 85 20 162 25
170 6 11 41 18 146 26 76 6 146 12 156 12 9 1 17 -4 17 -10z m3889 -57 c-4
-30 -14 -58 -21 -63 -15 -9 -48 -11 -48 -3 0 18 69 130 75 123 2 -2 -1 -27 -6
-57z m1756 49 c-3 -5 -11 -10 -16 -10 -6 0 -7 5 -4 10 3 6 11 10 16 10 6 0 7
-4 4 -10z m-6058 -15 c2 -1 -5 -89 -15 -196 l-17 -194 -138 -9 c-76 -5 -139
-7 -141 -5 -4 6 34 393 40 398 11 12 97 18 179 13 50 -3 91 -6 92 -7z m59 -12
c-2 -10 -10 -93 -17 -185 -6 -92 -15 -172 -19 -179 -22 -35 -23 15 -6 189 15
148 23 192 33 192 9 0 12 -7 9 -17z m-366 -30 c0 -42 -20 -304 -26 -340 -5
-32 -7 -33 -49 -33 -25 0 -45 4 -45 9 0 5 5 89 10 187 12 197 14 204 77 204
29 0 33 -3 33 -27z m-139 -88 c-2 -55 -6 -143 -10 -195 l-6 -95 -95 -6 c-52
-4 -98 -4 -101 0 -5 5 20 372 26 379 3 4 148 20 169 18 19 -1 20 -8 17 -101z
m7086 88 c-15 -25 -145 -384 -242 -668 -158 -463 -185 -539 -193 -547 -4 -4
-26 1 -49 12 l-41 18 9 44 c19 80 371 1133 383 1140 15 10 139 10 133 1z
m-7307 -65 c-1 -70 -18 -319 -22 -324 -2 -1 -41 -7 -87 -12 l-84 -8 6 189 c4
105 9 192 12 196 3 3 40 8 83 12 42 3 80 7 85 7 4 1 7 -26 7 -60z m7106 45
c-66 -223 -334 -1038 -361 -1100 -15 -35 -45 -45 -45 -16 0 9 16 67 36 128 47
148 314 954 325 983 10 27 53 32 45 5z m-96 0 c1 -5 -66 -209 -147 -455 -124
-378 -150 -448 -166 -448 -16 0 -18 5 -12 33 10 47 113 371 194 607 97 286 90
270 112 270 10 0 19 -3 19 -7z m-7230 -121 c0 -66 -3 -153 -6 -195 l-7 -77
-59 0 -60 0 6 38 c3 20 8 96 11 167 9 191 7 185 66 185 l49 0 0 -118z m7000
-116 c-44 -128 -105 -314 -135 -412 -30 -98 -59 -182 -65 -188 -15 -15 -60 10
-60 35 0 11 24 98 54 192 30 95 85 266 121 381 36 115 68 213 71 218 3 4 25 8
49 8 l44 0 -79 -234z m-7145 122 c-3 -57 -8 -144 -11 -194 l-6 -91 -51 -7
c-29 -3 -84 -6 -122 -6 l-70 0 3 183 c2 100 9 187 14 194 9 11 56 17 191 21
l58 2 -6 -102z m7055 91 c0 -11 -56 -188 -187 -594 -25 -77 -50 -144 -55 -150
-16 -16 -1 42 67 260 124 397 157 495 166 495 5 0 9 -5 9 -11z m-485 -296
c-48 -158 -91 -292 -96 -298 -6 -6 -15 -3 -25 7 -14 14 -12 26 21 139 20 68
59 195 86 281 43 134 54 157 72 160 12 2 24 3 26 1 2 -1 -36 -131 -84 -290z
m165 287 c0 -6 -23 -86 -51 -178 -36 -117 -64 -190 -96 -245 -25 -43 -47 -76
-49 -75 -3 4 11 51 105 346 44 136 55 162 72 162 10 0 19 -5 19 -10z m80 -12
c-1 -22 -59 -143 -60 -124 0 5 10 40 22 78 22 68 38 88 38 46z m-7174 -49 c-3
-34 -6 -124 -6 -199 l0 -137 -122 -7 c-68 -4 -142 -9 -165 -13 l-43 -5 0 149
c0 83 3 171 6 196 l7 46 51 6 c50 6 208 21 255 24 23 1 24 0 17 -60z m64 -134
l0 -195 -25 0 -26 0 6 133 c9 211 15 257 31 257 12 0 14 -33 14 -195z m6780
189 c0 -4 -32 -111 -71 -238 -38 -127 -73 -239 -75 -248 -7 -24 -44 -23 -44 1
0 36 142 466 158 479 17 13 32 16 32 6z m84 -16 c-3 -13 -42 -134 -85 -270
-44 -137 -79 -250 -79 -253 0 -3 -7 -5 -16 -5 -29 0 -15 59 102 438 33 104 37
112 60 112 22 0 24 -3 18 -22z m-234 -223 c-41 -124 -77 -225 -82 -225 -8 0 2
37 72 250 59 182 71 213 78 205 3 -3 -28 -106 -68 -230z m-254 193 c-14 -69
-147 -468 -156 -468 -6 0 -10 6 -10 12 0 25 144 473 155 480 17 12 18 10 11
-24z m114 26 c0 -15 -113 -350 -121 -358 -6 -6 -14 -5 -21 2 -10 10 0 50 46
187 48 146 61 175 77 175 10 0 19 -3 19 -6z m50 -21 c-5 -16 -36 -116 -70
-223 -33 -107 -85 -262 -114 -345 -30 -82 -57 -160 -61 -173 -4 -13 -9 -21
-12 -19 -2 3 32 123 76 267 135 435 164 520 177 520 10 0 11 -7 4 -27z m14
-190 c-37 -114 -69 -201 -71 -193 -2 9 21 92 52 185 63 193 76 228 82 221 3
-2 -26 -98 -63 -213z m-6994 7 l0 -200 -77 0 c-43 0 -115 -3 -160 -7 l-83 -6
0 187 c0 144 3 188 13 192 7 2 74 11 148 18 73 7 140 14 147 15 9 1 12 -45 12
-199z m6543 -377 c-77 -313 -156 -622 -173 -688 -18 -66 -39 -146 -47 -177
l-15 -58 -109 0 c-98 0 -109 2 -109 18 0 59 394 1450 414 1464 6 4 49 8 96 8
l85 0 -142 -567z m-153 551 c0 -4 -31 -124 -69 -268 -39 -144 -88 -333 -111
-421 -142 -550 -199 -758 -210 -769 -9 -9 -225 -5 -234 5 -8 7 284 1177 345
1381 l20 67 77 4 c162 7 182 7 182 1z m66 -11 c-3 -10 -39 -142 -81 -293 -249
-900 -351 -1250 -332 -1140 7 38 216 861 299 1172 69 263 74 278 96 278 18 0
22 -4 18 -17z m-6806 -120 c0 -71 3 -158 7 -195 l6 -68 -32 0 -31 0 0 129 c0
70 -3 155 -6 189 -6 53 -5 61 12 65 44 11 44 12 44 -120z m-85 5 c3 -62 5
-149 3 -193 l-3 -80 -122 -3 -123 -3 0 185 0 184 83 10 c45 5 98 10 119 11
l36 1 7 -112z m6461 76 c-4 -19 -40 -158 -81 -307 -40 -150 -103 -384 -140
-522 -37 -137 -87 -324 -112 -414 l-46 -164 -86 7 c-46 3 -86 8 -88 10 -5 5
90 403 173 726 36 140 69 269 74 286 6 28 169 309 222 387 15 21 27 27 55 27
35 0 35 0 29 -36z m34 -111 c-21 -82 -45 -173 -53 -203 -9 -30 -70 -271 -137
-535 -67 -264 -126 -497 -131 -517 -7 -28 -15 -38 -29 -38 -11 0 -20 2 -20 5
0 13 204 814 230 905 5 19 21 76 34 125 51 188 108 390 113 398 2 4 10 7 18 7
10 0 4 -37 -25 -147z m-190 131 c0 -8 -63 -95 -66 -91 -7 7 16 81 28 88 15 10
38 12 38 3z m1801 -100 c-16 -54 -42 -142 -58 -194 -104 -335 -106 -340 -124
-340 -10 0 -21 4 -24 10 -7 11 31 144 104 366 32 99 62 171 87 208 20 31 38
55 40 53 2 -2 -9 -48 -25 -103z m-1885 79 c-3 -10 -13 -49 -22 -88 -21 -87
-47 -139 -169 -340 -81 -134 -96 -154 -90 -120 10 62 126 528 136 548 8 14 23
17 80 17 62 0 70 -2 65 -17z m-6501 -168 c4 -97 5 -178 2 -181 -3 -3 -30 -8
-61 -11 -51 -5 -56 -4 -56 14 0 13 10 22 33 28 l32 10 0 75 c0 41 -4 112 -9
158 l-8 82 30 0 30 0 7 -175z m6208 168 c3 -5 -17 -89 -44 -188 -27 -99 -80
-315 -120 -480 -39 -165 -80 -323 -91 -352 -10 -29 -61 -121 -111 -205 l-92
-153 -64 -3 -64 -3 7 43 c20 122 290 1289 305 1318 6 11 34 16 107 21 54 3
113 6 131 7 17 1 34 -1 36 -5z m112 -15 c-3 -13 -34 -142 -69 -288 -84 -346
-116 -443 -173 -528 -72 -106 -74 -105 -47 9 42 176 204 810 210 820 3 5 23 9
45 9 36 0 39 -2 34 -22z m-432 -30 c-26 -143 -237 -1038 -294 -1250 l-21 -78
-92 1 c-50 0 -112 4 -137 7 l-47 7 88 370 c199 843 223 940 229 947 6 7 161
24 238 27 l43 1 -7 -32z m-314 -35 c-5 -21 -54 -229 -109 -463 -54 -234 -120
-510 -145 -615 -24 -104 -45 -193 -45 -197 0 -5 -11 -8 -25 -8 -28 0 -29 4
-15 63 5 23 48 224 94 447 81 387 161 756 172 792 3 10 18 18 37 20 44 5 46 3
36 -39z m-104 15 c-11 -44 -256 -1173 -267 -1228 -6 -30 -14 -58 -18 -63 -3
-4 -53 -4 -109 -1 l-103 7 6 41 c22 142 275 1229 290 1243 4 4 41 10 84 14
132 11 123 12 117 -13z m-2579 -86 c-13 -12 -16 8 -9 49 l8 44 3 -44 c2 -23 1
-46 -2 -49z m2339 66 c-2 -13 -61 -270 -129 -573 -69 -302 -132 -583 -141
-622 l-17 -73 -59 0 c-49 0 -59 3 -59 17 0 29 219 1144 241 1225 10 40 18 43
122 46 44 2 47 1 42 -20z m-200 -30 c-16 -99 -236 -1189 -245 -1212 -9 -23
-12 -24 -67 -19 -32 3 -59 7 -61 8 -3 2 110 532 202 946 36 162 66 298 66 302
0 5 36 12 88 15 22 2 23 0 17 -40z m-135 17 c0 -17 -66 -328 -164 -775 -35
-162 -72 -331 -82 -375 -9 -44 -21 -84 -25 -89 -4 -4 -52 -5 -107 -1 l-99 7
13 71 c7 40 49 277 94 527 45 250 89 496 98 545 l17 90 75 6 c150 11 180 10
180 -6z m-330 -21 c0 -18 -121 -617 -198 -984 l-48 -225 -144 0 -145 0 3 35
c8 82 214 1155 224 1165 2 2 60 8 128 13 188 14 180 14 180 -4z m-397 -21 c6
-12 -171 -1103 -190 -1167 -5 -17 -15 -18 -134 -14 -70 2 -130 6 -133 9 -10
10 191 1139 205 1154 6 6 47 13 92 16 132 9 156 9 160 2z m57 -2 c0 -27 -44
-218 -52 -226 -6 -7 -8 -1 -4 15 3 14 10 57 16 95 16 106 21 125 31 125 5 0 9
-4 9 -9z m-345 -38 c-28 -168 -87 -503 -138 -783 l-63 -345 -42 -3 c-29 -2
-42 1 -42 10 0 57 163 1134 173 1140 7 4 36 8 64 8 52 0 52 0 48 -27z m-155
10 c-1 -15 -50 -361 -100 -703 -28 -190 -54 -366 -57 -392 l-6 -48 -88 0 c-89
0 -89 0 -89 26 0 69 164 1093 178 1105 14 14 162 24 162 12z m-200 -28 c0 -14
-32 -218 -142 -902 l-32 -203 -73 0 c-40 0 -73 3 -73 7 0 22 122 988 131 1040
13 71 12 70 117 72 59 1 72 -2 72 -14z m1016 -276 c-36 -214 -120 -665 -152
-826 -5 -23 -12 -33 -25 -33 -15 0 -18 5 -14 23 6 25 224 1111 226 1124 1 4 3
1 6 -8 2 -10 -16 -136 -41 -280z m-1230 254 c-3 -16 -35 -255 -71 -533 -36
-278 -68 -516 -71 -529 -5 -22 -8 -23 -56 -18 -28 4 -53 9 -56 11 -2 3 14 135
37 293 22 158 56 400 76 536 19 137 37 253 40 258 4 5 29 9 56 9 50 0 51 0 45
-27z m-140 -50 c-7 -70 -76 -551 -120 -846 -15 -92 -26 -170 -26 -172 0 -3
-49 -5 -110 -5 l-110 0 0 33 c0 51 95 977 105 1024 5 24 22 26 199 31 l69 2
-7 -67z m-335 35 c0 -7 -31 -246 -68 -530 l-68 -518 -147 0 -148 0 0 38 c0 34
72 680 101 900 6 52 17 95 23 98 6 2 70 8 141 12 72 5 138 10 148 11 9 0 17
-5 18 -11z m-12 -530 c-29 -280 -56 -514 -60 -520 -4 -6 -13 -8 -21 -5 -13 4
-11 37 13 229 75 596 101 795 106 818 21 87 9 -72 -38 -522z m-389 488 c0 -43
-40 -504 -65 -754 -14 -134 -25 -245 -25 -247 0 -5 -226 5 -256 10 l-20 4 32
353 c47 500 60 628 68 636 7 7 113 17 219 20 44 2 47 0 47 -22z m41 -76 l-9
-45 -1 41 c-1 23 2 57 6 75 l8 34 3 -30 c1 -16 -2 -50 -7 -75z m5715 -65 c-45
-155 -56 -186 -56 -151 0 18 78 294 87 309 18 29 8 -21 -31 -158z m-6056 135
c0 -16 -78 -867 -85 -927 -6 -53 -7 -53 -42 -53 l-36 0 7 73 c9 107 66 868 66
888 0 17 18 25 68 28 12 0 22 -4 22 -9z m-125 -87 c-3 -49 -19 -265 -35 -482
-17 -217 -30 -398 -30 -403 0 -4 -45 -8 -100 -8 l-100 0 0 38 c0 47 60 880 66
909 4 23 13 25 162 31 l44 2 -7 -87z m-225 53 c0 -52 -69 -939 -73 -941 -1 -1
-33 1 -72 4 -53 5 -70 10 -70 21 0 53 19 445 31 655 7 138 14 253 14 257 0 9
40 15 113 17 43 1 57 -2 57 -13z m-208 -6 c6 -30 -39 -891 -48 -919 -3 -10
-18 -12 -60 -8 -31 3 -59 8 -62 11 -5 5 34 718 47 846 l6 65 45 6 c50 7 71 7
72 -1z m-1732 -24 c0 -28 -21 -36 -102 -36 -55 0 -58 1 -58 24 0 27 -7 25 133
34 22 2 27 -2 27 -22z m-194 -11 c4 -14 5 -28 2 -30 -2 -2 -48 -7 -101 -11
l-97 -7 0 26 c0 23 5 26 48 32 26 3 54 8 62 9 8 2 30 4 47 5 27 1 34 -3 39
-24z m1774 -54 c0 -132 -43 -828 -52 -836 -2 -2 -50 -1 -107 2 l-104 6 6 356
c4 196 10 397 14 448 l6 92 31 4 c17 2 70 5 119 5 l87 2 0 -79z m-350 -23 c0
-78 -11 -351 -26 -660 l-7 -138 -57 0 c-31 0 -99 3 -150 7 l-92 6 3 418 c3
230 7 420 10 423 5 6 188 22 277 25 l42 1 0 -82z m75 5 c-2 -43 -7 -181 -10
-308 -3 -126 -8 -290 -12 -362 l-6 -133 -28 0 -28 0 4 93 c3 50 10 220 15 377
6 157 13 313 17 348 5 57 8 62 30 62 23 0 23 -1 18 -77z m-1735 42 c0 -18 -5
-25 -20 -25 -15 0 -20 7 -20 25 0 18 5 25 20 25 15 0 20 -7 20 -25z m1300
-203 c0 -115 -3 -304 -7 -421 l-6 -213 -151 7 c-83 4 -153 9 -156 12 -6 6 -1
795 5 802 6 5 161 17 258 19 l57 2 0 -208z m6920 173 c0 -14 -7 -28 -15 -32
-22 -8 -28 2 -21 32 8 33 36 33 36 0z m-7350 -393 l0 -397 -112 3 c-62 2 -116
7 -120 10 -4 4 -8 178 -10 387 l-3 380 115 10 c63 6 118 9 123 7 4 -2 7 -182
7 -400z m80 3 c0 -390 -1 -405 -19 -405 -18 0 -19 17 -26 394 -4 217 -4 399
-1 405 4 6 16 11 27 11 18 0 19 -11 19 -405z m7370 365 c37 -19 39 -21 29 -50
-6 -16 -15 -30 -20 -30 -5 0 -25 15 -45 33 -25 23 -33 37 -29 50 9 22 17 21
65 -3z m-7726 -17 c2 -16 6 -188 8 -383 l3 -355 -40 -3 c-22 -1 -46 2 -53 6
-12 8 -18 99 -37 594 l-6 157 23 4 c13 2 40 5 60 6 32 1 37 -2 42 -26z m-151
-95 c4 -62 10 -233 13 -379 l7 -266 -79 5 c-43 2 -81 6 -83 8 -2 2 -7 146 -12
321 -5 175 -10 337 -11 361 -4 48 -2 49 82 55 25 2 52 4 61 5 14 2 17 -16 22
-110z m-199 50 c5 -42 26 -577 26 -651 l0 -38 -90 2 -89 2 -6 41 c-12 89 -21
453 -12 492 7 31 6 49 -6 75 -9 19 -18 48 -22 66 -6 31 -6 32 37 37 24 3 54 7
68 10 14 2 39 4 57 5 30 1 32 -1 37 -41z m6621 -389 c-58 -233 -110 -441 -116
-461 l-10 -38 -69 0 c-54 0 -70 3 -70 14 0 22 96 414 115 471 10 28 57 115
105 195 48 80 100 169 114 198 15 30 29 52 32 50 2 -3 -43 -196 -101 -429z
m-6855 392 c0 -10 -9 -21 -20 -24 -16 -4 -20 0 -20 19 0 17 6 24 20 24 13 0
20 -7 20 -19z m8434 -1 c50 -21 53 -26 31 -53 -12 -17 -18 -18 -49 -7 -44 14
-56 29 -45 58 10 27 7 27 63 2z m-509 -21 c-10 -44 -86 -260 -80 -224 15 76
68 255 77 255 5 0 7 -13 3 -31z m-8231 -86 c4 -60 8 -125 10 -145 5 -47 -11
-50 -51 -8 -55 59 -67 144 -31 216 16 32 28 44 44 44 21 0 22 -5 28 -107z
m8326 85 c0 -6 -16 -61 -36 -121 -21 -66 -33 -120 -29 -134 4 -16 1 -23 -10
-23 -10 0 -15 9 -15 28 0 27 53 233 65 252 8 14 25 13 25 -2z m607 -66 c13 -8
7 -52 -7 -52 -35 0 -50 26 -28 48 14 14 19 14 35 4z m186 -119 c-4 -43 -16
-45 -76 -7 -42 26 -57 41 -57 58 0 13 3 25 6 29 3 3 33 -8 67 -24 54 -26 62
-33 60 -56z m115 -29 c31 -22 28 -44 -6 -44 -37 0 -54 17 -41 42 12 22 18 22
47 2z m-8894 -261 c6 -178 6 -183 -13 -183 -23 0 -25 9 -41 181 -13 152 -13
152 12 184 16 20 23 24 28 14 4 -8 10 -96 14 -196z m9053 180 c-40 -143 -46
-153 -75 -135 -11 8 -4 38 33 140 2 6 14 12 26 12 16 0 20 -5 16 -17z m-69
-205 c3 -17 -84 -267 -99 -282 -6 -6 -13 -6 -21 2 -9 9 -1 43 31 144 24 73 48
139 54 146 12 16 31 11 35 -10z m-2407 -114 c-11 -49 -31 -125 -44 -169 l-23
-80 -37 -3 c-43 -4 -44 0 -21 79 15 50 133 273 141 265 2 -2 -5 -43 -16 -92z
m2484 86 c8 -14 -13 -84 -216 -697 -98 -299 -179 -550 -179 -558 0 -9 -9 -15
-25 -15 -14 0 -25 3 -25 7 0 5 24 82 54 173 58 176 331 1013 347 1068 10 31
32 42 44 22z m107 -46 c28 -15 30 -19 25 -57 -4 -23 -55 -180 -116 -348 -60
-168 -149 -423 -197 -567 l-87 -262 -45 0 c-36 0 -43 3 -38 15 3 9 56 170 117
358 61 188 121 375 135 415 13 40 49 148 78 240 82 252 72 235 128 206z
m-9158 -186 c7 -53 26 -357 26 -415 0 -38 -3 -43 -24 -43 -26 0 -24 -13 -42
363 -7 134 -7 137 14 137 17 0 22 -8 26 -42z m219 10 c4 -18 9 -131 13 -250
l7 -218 -86 0 -85 0 -6 78 c-3 42 -8 155 -12 250 l-6 172 85 0 85 0 5 -32z
m193 18 c1 0 5 -115 9 -255 l7 -254 -72 5 c-39 3 -75 9 -80 14 -4 5 -11 121
-15 257 l-7 248 79 -7 c43 -4 79 -7 79 -8z m144 -188 c0 -106 3 -223 7 -260
l6 -68 -46 0 c-25 0 -48 3 -51 8 -2 4 -7 121 -12 260 l-7 252 52 0 51 0 0
-192z m263 15 c4 -91 7 -211 7 -266 l0 -99 -97 7 c-54 4 -105 9 -114 11 -13 4
-17 31 -22 171 -4 91 -7 206 -7 255 l0 88 113 0 114 0 6 -167z m72 95 c11
-125 2 -461 -12 -466 -10 -3 -13 55 -13 267 0 157 4 271 9 271 5 0 12 -33 16
-72z m298 56 l37 -7 0 -117 c0 -64 -3 -185 -7 -269 l-6 -153 -76 6 c-42 4
-106 9 -143 12 l-68 6 0 264 0 264 113 0 c61 0 129 -3 150 -6z m285 -11 l82
-6 0 -86 c0 -47 -3 -171 -7 -275 l-6 -188 -111 7 c-61 3 -121 9 -133 12 l-23
5 0 269 0 269 58 0 c31 0 94 -3 140 -7z m7205 -15 c-27 -119 -313 -998 -324
-998 -4 0 1 28 10 63 14 46 268 857 296 945 8 22 23 13 18 -10z m-7038 3 c3
-5 2 -131 -1 -280 l-7 -271 -30 0 -30 0 6 118 c4 64 10 187 13 272 6 143 12
169 36 170 4 0 9 -4 13 -9z m255 -33 c0 -18 -7 -141 -15 -273 -8 -132 -15
-246 -15 -254 0 -10 -17 -12 -78 -10 -120 6 -115 -4 -108 229 4 107 9 228 12
268 l6 72 99 0 99 0 0 -32z m155 -50 c-7 -85 -25 -430 -25 -470 0 -27 -2 -28
-52 -28 -85 0 -82 -11 -64 221 9 112 19 237 22 277 l6 72 59 0 60 0 -6 -72z
m153 66 c17 -3 29 -11 27 -18 -2 -6 -11 -129 -21 -274 -10 -144 -21 -267 -25
-273 -4 -7 -26 -8 -63 -4 l-56 7 0 47 c1 85 29 501 35 511 7 11 57 13 103 4z
m257 -31 c-2 -16 -12 -146 -21 -290 l-18 -263 -85 0 c-47 0 -92 4 -100 9 -12
8 -11 50 9 290 l24 281 98 0 98 0 -5 -27z m95 2 c0 -25 -39 -477 -45 -522 -5
-38 -9 -43 -31 -43 -23 0 -24 3 -20 33 3 17 13 129 21 247 21 302 21 300 51
300 15 0 24 -6 24 -15z m303 -40 c-1 -27 -12 -162 -24 -299 l-23 -248 -131 7
c-71 4 -133 10 -137 14 -5 4 29 380 52 579 0 1 60 1 133 0 l132 -3 -2 -50z
m354 32 c1 -1 -15 -135 -36 -297 l-37 -295 -139 3 c-77 2 -141 4 -142 6 -1 1
13 132 32 292 19 159 35 293 35 298 0 7 279 0 287 -7z m3193 -7 c0 -11 -7 -20
-15 -20 -13 0 -13 3 -3 20 7 11 14 20 15 20 2 0 3 -9 3 -20z m-3127 -17 c-1
-16 -14 -134 -28 -263 -36 -337 -33 -320 -56 -320 -10 0 -19 6 -19 13 0 15 67
519 75 565 7 40 33 44 28 5z m190 20 c52 -4 67 -9 67 -22 0 -9 -19 -146 -42
-305 l-42 -289 -94 6 c-52 3 -96 8 -99 11 -5 4 48 485 63 574 4 29 8 32 42 32
20 0 67 -3 105 -7z m213 -40 c-3 -21 -20 -144 -36 -273 -16 -129 -33 -252 -36
-272 l-6 -38 -54 0 c-50 0 -54 2 -54 23 0 23 65 502 76 565 6 31 7 32 61 32
l55 0 -6 -37z m176 -3 c-4 -43 -80 -537 -87 -567 -5 -21 -11 -23 -65 -23 -33
0 -60 4 -60 8 0 13 29 233 55 424 14 97 25 182 25 188 0 7 24 10 68 8 l67 -3
-3 -35z m4999 13 c-5 -16 -54 -165 -109 -333 -55 -168 -121 -369 -147 -447
-44 -137 -65 -179 -65 -132 0 35 77 292 271 907 8 24 16 32 34 32 21 0 23 -3
16 -27z m-4781 3 c0 -7 -15 -114 -34 -237 -19 -123 -40 -261 -47 -307 l-12
-84 -86 7 c-47 4 -89 9 -92 11 -3 1 7 76 22 166 14 90 37 229 50 311 l23 147
88 0 c68 0 88 -3 88 -14z m105 -28 c-3 -18 -23 -139 -45 -268 -55 -317 -60
-340 -73 -340 -40 1 -40 9 3 301 54 375 45 339 86 339 34 0 35 -1 29 -32z
m301 20 c4 -4 -16 -148 -45 -320 -28 -172 -51 -317 -51 -322 0 -8 -49 -5 -216
10 l-61 6 8 46 c9 55 97 536 105 570 5 23 6 24 129 20 68 -2 127 -6 131 -10z
m347 -5 c4 -8 -128 -652 -135 -658 -4 -3 -262 17 -266 21 -3 2 105 604 114
632 2 9 40 12 143 12 77 0 142 -3 144 -7z m67 -15 c0 -13 -105 -584 -115 -626
-4 -17 -12 -22 -28 -20 -13 2 -21 9 -20 18 3 22 123 602 129 623 6 19 34 24
34 5z m237 -2 c7 -7 -126 -646 -138 -659 -6 -8 -165 6 -175 15 -2 3 23 148 56
322 33 175 60 323 60 328 0 12 186 6 197 -6z m163 -4 c0 -11 -129 -632 -136
-656 -5 -16 -13 -17 -62 -11 -32 4 -59 9 -62 11 -2 3 3 39 12 82 64 295 119
550 124 565 4 14 17 17 65 17 32 0 59 -4 59 -8z m140 -2 c16 -10 0 -90 -97
-493 -36 -151 -48 -187 -60 -183 -8 3 -28 6 -44 6 -19 0 -29 5 -29 15 0 17
127 632 135 653 5 14 73 16 95 2z m258 -5 c2 -2 -30 -157 -70 -345 l-73 -343
-104 7 c-57 3 -106 8 -109 10 -5 6 134 630 148 663 8 21 13 21 107 16 54 -3
99 -7 101 -8z m86 -22 c-35 -171 -162 -667 -172 -671 -7 -2 -12 5 -12 15 0 18
135 644 145 671 2 6 13 12 24 12 17 0 20 -5 15 -27z m298 11 c11 -10 -111
-465 -140 -527 -17 -34 -45 -84 -64 -112 -27 -40 -39 -50 -61 -49 -157 3 -157
3 -157 24 0 11 37 166 81 345 l81 325 128 0 c69 0 129 -2 132 -6z m147 -26
c-39 -73 -141 -239 -145 -235 -3 2 9 61 27 131 l31 126 50 0 c47 0 48 -1 37
-22z m157 6 c-3 -8 -30 -111 -60 -227 -30 -117 -64 -246 -76 -287 -12 -41 -28
-99 -36 -127 l-15 -53 -78 0 c-43 0 -93 3 -110 6 -29 6 -32 10 -26 33 10 40
103 220 200 386 127 218 172 285 191 285 11 0 14 -5 10 -16z m94 -1 c-1 -10
-38 -171 -83 -358 l-82 -340 -38 -3 c-24 -2 -37 1 -37 9 0 11 113 457 145 574
8 28 19 69 25 93 10 37 14 42 40 42 22 0 30 -5 30 -17z m187 -10 c-3 -10 -45
-173 -93 -362 l-88 -343 -62 4 c-35 2 -65 6 -68 9 -4 4 150 637 169 697 3 8
27 12 75 12 63 0 71 -2 67 -17z m213 4 c0 -8 -192 -722 -195 -725 -7 -7 -165
11 -165 19 0 8 167 673 175 697 3 8 31 12 95 12 49 0 90 -1 90 -3z m80 -10 c0
-11 -168 -653 -186 -709 -5 -17 -34 -25 -46 -13 -3 3 7 51 22 108 16 56 56
206 90 332 81 303 78 295 101 295 10 0 19 -6 19 -13z m226 3 l51 0 -12 -52
c-7 -29 -41 -161 -75 -293 -34 -132 -71 -275 -82 -317 l-20 -78 -87 0 c-47 0
-102 3 -122 6 l-37 6 15 57 c71 282 166 641 174 660 9 23 13 24 77 17 37 -3
90 -6 118 -6z m329 -22 c14 -14 -79 -406 -172 -720 -6 -20 -59 -23 -171 -12
-60 7 -62 7 -56 33 10 39 148 524 179 624 l27 89 93 -4 c51 -1 96 -6 100 -10z
m-265 -88 c-15 -41 -18 -46 -14 -20 10 61 29 117 32 95 1 -11 -6 -45 -18 -75z
m1845 -196 c-36 -141 -68 -261 -71 -266 -3 -5 -23 -74 -44 -154 -21 -80 -40
-148 -43 -150 -9 -9 -57 8 -57 20 0 12 98 308 219 660 28 82 51 152 51 154 0
3 3 3 6 0 3 -4 -24 -122 -61 -264z m-8907 -24 l62 0 0 -30 0 -30 -85 0 -85 0
0 36 c0 33 2 36 23 30 12 -3 50 -6 85 -6z m-153 -20 c8 -26 -2 -41 -23 -33
-38 14 -43 53 -8 53 16 0 27 -7 31 -20z m403 -22 l3 -28 -80 0 -81 0 0 30 0
31 78 -3 c76 -3 77 -3 80 -30z m130 -4 c3 -19 -2 -22 -44 -26 -48 -3 -62 7
-50 38 4 11 17 14 48 12 35 -2 44 -7 46 -24z m220 0 c31 -4 42 -10 42 -22 0
-15 -12 -17 -102 -14 -121 4 -128 5 -128 32 0 19 4 20 73 15 39 -3 91 -8 115
-11z m102 -24 c0 -11 -4 -20 -10 -20 -5 0 -10 9 -10 20 0 11 5 20 10 20 6 0
10 -9 10 -20z m318 -5 c6 -2 12 -9 12 -15 0 -6 -52 -10 -145 -10 -144 0 -145
0 -145 23 l0 22 133 -7 c72 -4 138 -10 145 -13z m275 -21 c86 -9 69 -24 -27
-24 -116 0 -176 9 -176 27 0 15 17 15 203 -3z m157 -19 c0 -10 -11 -15 -35
-15 -24 0 -35 5 -35 15 0 10 11 15 35 15 24 0 35 -5 35 -15z m168 -1 c28 -4
52 -11 52 -15 0 -12 -177 -12 -184 0 -14 22 31 27 132 15z m217 -25 c5 -5 -19
-9 -58 -9 -49 0 -67 4 -67 13 0 10 14 13 58 9 31 -2 61 -8 67 -13z m-1981 -26
c3 -21 8 -89 12 -150 l6 -113 -29 0 -30 0 -7 92 c-3 50 -6 117 -6 150 0 55 1
58 24 58 20 0 25 -6 30 -37z m210 -55 c3 -50 6 -120 6 -155 0 -71 3 -70 -106
-57 l-52 6 -6 132 c-4 72 -9 139 -12 149 -5 15 3 17 79 17 l84 0 7 -92z m189
-15 c4 -54 7 -125 7 -157 l0 -59 -76 6 c-42 3 -77 7 -79 9 -1 2 -5 69 -7 151
l-5 147 77 0 77 0 6 -97z m1742 87 c-3 -5 -30 -10 -60 -10 -30 0 -57 5 -60 10
-4 6 18 10 60 10 42 0 64 -4 60 -10z m-1615 -155 l0 -155 -39 0 c-38 0 -38 0
-45 46 -3 26 -6 96 -6 155 l0 109 45 0 45 0 0 -155z m196 145 l64 0 0 -161 0
-162 -107 7 c-59 4 -109 9 -112 12 -8 7 -14 281 -7 300 5 14 15 16 53 10 25
-3 74 -6 109 -6z m1629 0 c17 -5 -13 -6 -70 -3 -55 3 -102 7 -104 9 -8 7 144
2 174 -6z m105 -10 c0 -5 -9 -10 -21 -10 -11 0 -17 5 -14 10 3 6 13 10 21 10
8 0 14 -4 14 -10z m193 -5 c65 -4 116 -9 113 -12 -9 -9 -266 9 -266 19 0 5 8
7 18 4 9 -2 70 -8 135 -11z m-1803 -156 c0 -104 -3 -158 -10 -154 -6 4 -10 68
-10 161 0 96 4 154 10 154 6 0 10 -60 10 -161z m326 148 c0 -1 -1 -76 -4 -165
l-4 -164 -92 6 c-50 4 -112 9 -138 12 l-48 6 0 160 0 161 142 -7 c79 -4 143
-8 144 -9z m238 -14 l78 -6 -4 -158 c-1 -86 -6 -160 -9 -163 -3 -3 -59 -3
-125 2 l-119 7 -3 90 c-2 50 0 123 3 163 l7 72 47 0 c27 0 83 -3 125 -7z
m1479 0 c-13 -2 -35 -2 -50 0 -16 2 -5 4 22 4 28 0 40 -2 28 -4z m-1308 -170
c-4 -93 -9 -170 -10 -172 -2 -2 -16 -1 -30 3 -24 6 -25 9 -25 80 0 40 3 114 6
164 l7 92 30 0 30 0 -8 -167z m225 100 c0 -32 -3 -109 -7 -170 l-6 -113 -66 0
c-109 0 -111 1 -111 79 0 36 3 110 7 164 l6 97 89 0 88 0 0 -57z m163 -33 c-1
-41 -5 -117 -9 -167 l-6 -93 -65 0 -65 0 6 108 c4 59 9 135 13 170 l5 63 62
-3 61 -3 -2 -75z m153 -39 c-4 -58 -9 -134 -12 -168 l-6 -63 -54 0 c-49 0 -54
2 -54 22 0 33 21 301 24 313 2 6 26 8 56 6 l52 -3 -6 -107z m244 61 c0 -52
-21 -306 -25 -311 -2 -2 -48 0 -101 4 l-97 7 7 107 c3 58 9 134 13 169 l6 62
98 0 99 0 0 -38z m76 -39 c-3 -38 -9 -115 -12 -171 -5 -75 -11 -105 -21 -109
-8 -3 -16 -3 -19 -1 -2 3 1 82 8 176 11 159 13 172 31 172 18 0 19 -5 13 -67z
m313 51 c5 -4 -19 -321 -25 -343 -3 -11 -26 -12 -117 -7 -61 4 -123 9 -138 12
l-25 5 13 142 c7 78 16 157 19 175 l5 34 132 -7 c73 -4 134 -9 136 -11z m4910
-3 c12 -8 10 -23 -13 -95 -25 -78 -29 -86 -53 -86 -16 0 -23 5 -21 13 3 6 17
49 32 95 15 45 31 82 34 82 4 0 13 -4 21 -9z m-4581 -15 c3 -3 -27 -225 -44
-325 l-5 -34 -132 7 c-72 4 -133 9 -135 11 -3 2 3 68 12 147 9 79 16 158 16
177 l0 34 142 -7 c78 -3 143 -8 146 -10z m72 -21 c0 -19 -28 -267 -36 -312 -3
-23 -10 -33 -23 -33 -10 0 -20 2 -23 5 -2 3 3 65 13 137 30 226 28 218 50 218
10 0 19 -7 19 -15z m221 7 c14 -6 14 -20 -2 -146 -10 -76 -21 -156 -24 -178
l-7 -40 -92 7 c-50 4 -92 9 -94 10 -2 2 6 80 17 174 12 93 21 173 21 176 0 7
162 5 181 -3z m4194 -19 c-22 -92 -38 -133 -51 -133 -18 0 -18 9 2 67 25 74
64 125 49 66z m-4025 -5 c0 -13 -9 -90 -20 -173 -11 -82 -20 -156 -20 -162 0
-9 -20 -13 -65 -13 -45 0 -65 4 -65 13 0 6 11 89 25 182 14 94 25 171 25 173
0 1 27 2 60 2 56 0 60 -2 60 -22z m154 -35 c-4 -27 -17 -109 -29 -183 l-22
-135 -54 3 c-30 2 -55 5 -56 5 -2 2 37 303 43 335 4 20 10 22 65 22 l60 0 -7
-47z m4031 37 c10 -17 -35 -140 -51 -140 -18 0 -18 29 0 77 8 21 17 46 20 56
6 19 21 22 31 7z m-3810 -9 c5 -8 -26 -259 -41 -333 l-6 -28 -94 0 c-83 0 -94
2 -94 18 0 9 12 92 26 185 l27 167 88 0 c48 0 90 -4 94 -9z m84 -28 c0 -16
-13 -98 -28 -183 -20 -116 -31 -155 -42 -155 -16 0 -16 -5 6 180 22 179 23
185 46 185 14 0 19 -7 18 -27z m279 11 c23 -3 42 -7 42 -9 0 -7 -60 -317 -66
-341 l-6 -25 -132 7 c-72 4 -134 9 -138 13 -3 3 10 88 29 188 l35 182 97 -5
c53 -3 115 -7 139 -10z m258 -14 c78 0 84 -1 84 -20 0 -17 -47 -260 -65 -338
-6 -23 -6 -23 -123 -17 -64 4 -122 8 -128 10 -8 2 -3 52 17 167 41 233 32 212
86 204 25 -3 83 -6 129 -6z m3223 -55 c-7 -30 -16 -54 -21 -53 -13 5 -13 7 6
66 23 68 32 61 15 -13z m-3049 33 c-1 -7 -16 -92 -34 -188 l-32 -175 -30 0
c-25 0 -29 3 -26 25 4 32 61 309 68 333 6 20 54 24 54 5z m210 -5 c4 -4 -7
-63 -52 -276 l-21 -98 -81 7 c-45 3 -82 8 -84 9 -4 3 65 353 72 363 4 8 157 4
166 -5z m167 -7 c1 -1 -15 -85 -36 -186 l-38 -185 -64 3 c-35 2 -64 4 -66 5
-3 4 74 354 81 366 5 7 27 9 64 5 31 -4 58 -7 59 -8z m139 -23 c-2 -10 -17
-73 -32 -140 l-28 -123 -38 0 c-33 0 -38 -3 -44 -27 -3 -16 -8 -35 -11 -43 -5
-13 -7 -12 -10 2 -4 16 54 324 64 341 2 4 27 7 54 7 43 0 50 -2 45 -17z m252
2 c1 -1 -16 -85 -38 -185 -22 -101 -40 -185 -40 -187 0 -2 -16 -3 -35 -3 -32
0 -35 2 -30 23 3 12 -1 33 -8 47 -10 20 -23 26 -65 31 -30 4 -55 9 -57 11 -5
4 53 257 62 271 4 7 202 0 211 -8z m2372 -6 c0 -29 -18 -59 -35 -59 -17 0 -19
18 -5 54 11 31 40 35 40 5z m-2314 -16 c-2 -10 -15 -55 -27 -101 -12 -46 -24
-81 -26 -78 -3 3 2 40 12 83 22 105 25 113 36 113 6 0 8 -8 5 -17z m204 13 c0
-2 -21 -42 -46 -90 -31 -59 -43 -92 -39 -106 5 -15 -4 -40 -29 -81 -20 -33
-36 -69 -36 -80 0 -16 -7 -19 -54 -19 -30 0 -57 3 -59 8 -2 4 8 52 23 107 16
55 38 137 50 183 l22 82 84 0 c46 0 84 -2 84 -4z m319 -22 c34 -4 61 -12 61
-18 0 -6 -19 -91 -42 -190 l-42 -178 -55 6 c-30 4 -56 8 -58 10 -2 2 2 15 8
30 10 22 9 29 -5 45 -24 26 -41 17 -72 -35 -14 -24 -30 -42 -35 -39 -4 3 -6
11 -4 18 2 7 20 82 40 167 20 85 39 163 42 173 5 19 51 22 162 11z m1851 -9
c0 -8 -9 -15 -20 -15 -13 0 -18 5 -14 15 4 8 12 15 20 15 8 0 14 -7 14 -15z
m-1674 -12 c-2 -10 -23 -94 -46 -188 -23 -93 -45 -174 -50 -178 -4 -5 -23 -5
-42 -2 l-35 7 48 186 c27 103 49 188 49 190 0 1 18 2 41 2 34 0 40 -3 35 -17z
m174 -4 c0 -9 -51 -217 -81 -331 l-10 -38 -63 0 c-34 0 -65 2 -68 5 -3 3 15
89 41 190 l46 185 68 0 c40 0 67 -4 67 -11z m202 -5 c5 -5 -19 -104 -85 -347
l-10 -39 -78 4 c-42 1 -80 6 -84 10 -4 4 15 90 42 192 l48 186 81 0 c44 0 83
-3 86 -6z m-6591 -149 l2 -80 -29 3 c-16 2 -31 5 -32 7 -2 2 -6 48 -9 103 l-6
100 29 4 c25 3 30 -1 36 -27 4 -16 8 -66 9 -110z m6628 -42 c-27 -104 -49
-191 -49 -195 0 -5 -11 -8 -25 -8 -14 0 -25 3 -25 8 0 4 18 75 40 157 23 83
45 167 51 188 8 29 15 37 33 37 l24 0 -49 -187z m320 172 c2 -3 -33 -143 -77
-312 -44 -169 -85 -333 -92 -363 -7 -30 -19 -61 -28 -67 -9 -8 -46 -13 -89
-13 -60 0 -77 4 -93 20 -48 48 -45 81 23 325 25 88 55 198 66 245 12 47 29
107 38 134 l15 49 117 -8 c64 -4 118 -8 120 -10z m-6761 -114 l3 -114 -67 6
c-36 2 -69 9 -74 13 -4 5 -10 55 -12 112 l-4 103 76 -3 75 -3 3 -114z m5576
-46 l-38 -155 -48 0 c-27 0 -48 5 -48 10 0 23 160 313 168 305 2 -2 -13 -74
-34 -160z m-5387 141 c0 0 4 -52 8 -114 l8 -114 -79 7 c-44 4 -80 8 -81 9 0 0
-4 52 -8 115 l-8 114 79 -8 c44 -4 80 -8 81 -9z m6815 5 l57 -6 -34 -45 c-19
-25 -74 -109 -122 -187 l-88 -143 -47 0 c-27 0 -48 3 -48 7 0 4 24 91 52 195
l53 188 60 -1 c33 -1 86 -4 117 -8z m-6687 -93 c4 -46 5 -96 3 -113 -3 -26 -7
-30 -39 -33 -45 -4 -49 6 -49 136 l0 92 39 0 39 0 7 -82z m222 66 c17 -2 34
-12 37 -20 3 -9 6 -61 6 -116 l0 -100 -67 6 c-38 4 -89 9 -115 12 l-46 6 -7
103 c-4 57 -4 108 -1 114 7 10 111 7 193 -5z m6748 -16 c-4 -13 -36 -112 -72
-221 -51 -159 -67 -196 -78 -187 -10 8 -1 47 49 203 77 240 72 227 91 227 12
0 15 -6 10 -22z m89 14 c2 -4 -30 -113 -73 -242 -53 -163 -81 -235 -92 -235
-9 0 -14 10 -13 31 2 30 98 343 129 417 14 34 37 48 49 29z m76 -11 c0 -11
-168 -513 -174 -518 -3 -3 -10 -2 -16 2 -16 10 -8 40 77 298 63 190 78 227 94
227 10 0 19 -4 19 -9z m60 -5 c0 -13 -103 -349 -157 -513 -16 -50 -36 -68 -46
-40 -3 9 134 435 178 555 6 17 25 15 25 -2z m-6880 -106 c0 -67 -4 -110 -10
-110 -6 0 -10 43 -10 110 0 67 4 110 10 110 6 0 10 -43 10 -110z m278 94 l32
-5 0 -114 0 -114 -67 5 c-163 14 -204 19 -203 27 0 4 0 55 0 113 l0 106 103
-7 c56 -3 117 -8 135 -11z m6689 4 c-3 -7 -49 -147 -104 -310 -58 -176 -103
-297 -110 -298 -7 0 -13 6 -13 13 0 32 136 484 170 561 14 34 25 46 40 46 13
0 20 -5 17 -12z m71 0 c-3 -7 -54 -157 -113 -333 -60 -176 -110 -322 -112
-324 -2 -3 -8 0 -15 7 -8 8 -1 40 30 124 37 104 115 341 158 481 14 43 22 57
37 57 11 0 17 -5 15 -12z m87 -10 c-3 -7 -56 -168 -120 -357 -63 -190 -117
-347 -120 -349 -8 -8 -34 19 -30 31 2 7 46 147 99 312 117 369 119 375 151
375 15 0 23 -5 20 -12z m85 5 c1 -18 -265 -773 -272 -773 -20 0 0 75 112 415
104 315 124 365 140 365 11 0 20 -3 20 -7z m-6592 -18 c13 -5 16 -93 5 -184
l-6 -53 -118 4 c-65 2 -120 6 -122 9 -2 2 -2 56 1 120 l4 116 112 -4 c61 -3
117 -6 124 -8z m6897 -17 c-18 -60 -275 -841 -280 -848 -3 -4 -14 -6 -25 -3
-11 3 -17 9 -14 15 3 5 69 194 145 421 77 227 141 418 144 425 2 6 12 12 20
12 12 0 15 -6 10 -22z m-6791 3 c3 -5 3 -59 -1 -120 l-6 -111 -35 0 -35 0 8
113 c4 61 9 115 12 120 6 10 51 9 57 -2z m6706 -38 c-7 -21 -16 -42 -21 -48
-5 -5 -3 13 6 40 8 28 15 52 15 54 0 2 3 2 6 -2 3 -3 1 -23 -6 -44z m184 -17
c-20 -65 -30 -68 -14 -5 16 62 20 73 26 66 3 -3 -2 -30 -12 -61z m-6682 35 c4
-3 4 -54 1 -114 l-6 -107 -68 0 c-100 0 -99 -1 -99 89 0 42 3 93 6 114 l7 38
76 -7 c42 -4 79 -9 83 -13z m6738 -178 c-38 -109 -104 -305 -146 -435 -73
-223 -79 -238 -102 -238 -16 0 -22 4 -19 14 3 7 62 188 132 400 153 468 148
456 179 456 24 0 23 -2 -44 -197z m190 183 c0 -7 -67 -206 -149 -442 l-149
-429 -29 3 c-15 2 -29 5 -31 6 -6 6 238 756 274 841 12 31 19 35 49 35 23 0
35 -5 35 -14z m-8973 -21 c13 -29 -1 -34 -17 -6 -12 23 -13 31 -2 31 4 0 12
-11 19 -25z m9136 -15 c-2 -28 -236 -840 -249 -861 -3 -6 -115 8 -122 16 -4 4
130 397 228 670 86 237 75 217 112 213 31 -3 33 -5 31 -38z m-6919 22 c3 -5 2
-59 -1 -120 l-6 -112 -31 0 c-17 0 -48 3 -69 7 l-39 6 7 106 c4 58 9 109 12
114 6 10 121 9 127 -1z m146 -45 c0 -24 -3 -78 -6 -120 l-7 -77 -38 0 c-70 0
-70 0 -64 114 4 55 8 107 10 114 3 7 23 12 55 12 l50 0 0 -43z m236 20 c3 -3
3 -58 -1 -121 l-7 -116 -37 0 c-20 0 -67 3 -105 7 l-69 6 7 81 c3 45 9 98 13
120 l6 39 94 -5 c51 -3 96 -8 99 -11z m79 -12 c-1 -6 -4 -61 -9 -122 -7 -95
-11 -113 -25 -113 -14 0 -15 10 -9 88 3 48 7 104 7 125 1 31 4 38 19 35 9 -2
17 -8 17 -13z m306 -13 c7 -8 -15 -240 -24 -248 -5 -6 -268 23 -275 30 -4 4
17 202 24 225 4 11 28 12 137 6 72 -4 135 -10 138 -13z m282 -18 c20 -4 27
-11 27 -27 -1 -42 -26 -236 -31 -241 -6 -7 -248 19 -256 27 -3 4 0 63 7 133
l14 126 105 -6 c58 -4 118 -9 134 -12z m5085 -6 c-3 -7 -24 -71 -48 -143 -23
-71 -47 -134 -52 -140 -13 -12 -11 -7 38 163 25 88 43 132 52 132 8 0 12 -6
10 -12z m-4979 -35 c0 -21 -6 -83 -12 -138 -11 -90 -14 -100 -33 -103 -31 -4
-34 29 -15 164 15 107 17 114 38 114 20 0 23 -5 22 -37z m5053 32 c3 -3 -48
-168 -112 -368 -113 -347 -119 -362 -143 -365 -25 -3 -26 -1 -17 25 51 162 74
231 148 443 92 266 102 287 124 265z m-4827 -17 c2 -2 -4 -65 -13 -140 l-16
-137 -51 5 c-130 12 -135 14 -135 37 0 12 7 67 15 122 8 55 15 106 15 114 0
11 17 13 91 8 50 -3 92 -7 94 -9z m125 -4 l32 -7 -6 -61 c-4 -34 -11 -94 -18
-133 l-11 -73 -54 0 c-40 0 -55 4 -60 16 -5 15 10 162 24 237 6 29 26 34 93
21z m177 -18 c3 -3 -1 -59 -11 -125 -9 -65 -14 -126 -10 -135 5 -13 -2 -16
-42 -16 -80 0 -80 -1 -60 147 10 70 21 132 23 137 6 9 90 3 100 -8z m231 -10
c3 -4 -34 -285 -39 -289 -2 -3 -41 -2 -87 1 -109 6 -111 9 -87 169 9 64 19
122 22 126 5 8 182 1 191 -7z m51 -121 c-11 -60 -19 -125 -17 -143 3 -25 1
-32 -11 -29 -19 3 -18 66 0 182 14 86 27 121 39 109 5 -5 0 -54 -11 -119z
m297 97 l30 -7 -20 -144 -19 -143 -121 6 c-105 6 -123 10 -138 28 -22 24 -22
72 -3 153 8 33 15 75 15 94 l0 33 113 -7 c62 -4 126 -10 143 -13z m3052 -37
c-12 -61 -28 -81 -28 -37 0 30 27 99 35 90 2 -2 -1 -26 -7 -53z m-7244 39 c21
-8 21 -54 0 -54 -27 0 -54 20 -54 40 0 20 23 26 54 14z m194 -18 c1 -2 0 -16
-4 -30 -4 -18 -11 -25 -21 -22 -8 3 -37 6 -64 6 -48 0 -49 0 -49 31 l0 32 67
-7 c37 -4 69 -8 71 -10z m4281 4 l44 0 -7 -62 c-4 -35 -14 -94 -23 -132 -12
-53 -13 -74 -4 -88 6 -10 11 -20 11 -23 0 -7 -115 -6 -189 2 -85 8 -87 17 -59
185 l22 131 80 -7 c45 -3 101 -6 125 -6z m-4081 -49 l3 -33 -58 6 c-105 12
-113 15 -113 42 0 25 1 25 83 22 l82 -3 3 -34z m4222 31 c0 -12 -50 -264 -56
-281 -6 -19 -44 30 -44 57 0 12 6 51 14 89 8 37 17 85 20 106 6 33 10 37 36
37 17 0 30 -4 30 -8z m-4108 -38 c-4 -20 -10 -24 -38 -24 -29 0 -34 3 -34 23
0 31 4 34 43 29 30 -3 33 -7 29 -28z m4308 24 c0 -6 -10 -63 -21 -126 -21
-108 -21 -116 -5 -149 9 -20 16 -36 14 -38 -2 -1 -49 3 -105 8 -76 7 -103 13
-103 24 0 11 36 190 55 271 5 21 11 22 85 22 54 0 80 -4 80 -12z m-4087 -14
c41 -5 47 -9 47 -30 0 -27 -12 -29 -157 -17 -77 5 -83 8 -83 28 0 12 3 25 7
29 7 7 69 3 186 -10z m4190 9 c-13 -2 -33 -2 -45 0 -13 2 -3 4 22 4 25 0 35
-2 23 -4z m145 -29 c2 -13 -4 -24 -14 -28 -23 -9 -37 7 -29 34 8 27 39 23 43
-6z m-5066 -14 c10 0 18 -7 18 -15 0 -22 -36 -19 -60 5 -27 27 -26 45 2 26 12
-9 30 -16 40 -16z m5348 21 l25 -7 -27 -18 c-37 -24 -82 -18 -86 12 -3 19 1
22 30 21 18 -1 44 -4 58 -8z m-4523 -33 c-3 -7 -5 -2 -5 12 0 14 2 19 5 13 2
-7 2 -19 0 -25z m243 16 c61 -6 70 -9 70 -27 0 -19 -4 -20 -132 -13 -73 4
-136 10 -140 12 -4 3 -8 14 -8 26 0 19 4 20 70 14 39 -3 102 -9 140 -12z
m4490 6 c0 -5 -25 -10 -55 -10 -30 0 -55 5 -55 10 0 6 25 10 55 10 30 0 55 -4
55 -10z m155 -10 c4 -6 -8 -10 -29 -10 -19 0 -38 5 -41 10 -4 6 8 10 29 10 19
0 38 -4 41 -10z m-5554 -10 c16 0 29 -4 29 -10 0 -6 -27 -10 -60 -10 -49 0
-60 3 -60 16 0 13 7 15 31 10 17 -3 44 -6 60 -6z m5838 -6 c2 -2 -8 -58 -24
-124 l-27 -119 21 -42 22 -42 -128 8 c-70 4 -131 9 -135 11 -13 8 -9 34 28
181 l37 142 101 -6 c55 -3 103 -7 105 -9z m-4616 -10 c51 -5 67 -10 67 -22 0
-13 -12 -14 -77 -8 -42 3 -96 6 -120 6 -37 0 -43 3 -43 21 0 20 4 21 53 15 28
-3 82 -8 120 -12z m-1428 -4 c3 -5 22 -10 41 -10 24 0 34 -5 34 -15 0 -10 -10
-15 -28 -15 -29 0 -72 24 -72 41 0 12 17 12 25 -1z m443 -7 c3 -10 -14 -13
-65 -13 -75 0 -113 7 -113 22 0 14 173 5 178 -9z m5712 2 c0 -30 -73 -305 -81
-305 -14 0 -49 53 -49 75 0 19 41 194 55 233 7 18 75 16 75 -3z m178 0 c2 -2
-8 -51 -22 -110 -30 -125 -32 -147 -10 -181 9 -13 14 -27 12 -30 -9 -9 -193
11 -192 21 1 6 21 79 44 164 l43 153 61 -7 c33 -3 62 -8 64 -10z m-5778 -5 c0
-12 -45 -24 -59 -15 -22 13 -10 25 24 25 19 0 35 -4 35 -10z m5969 -7 c3 -2
-11 -68 -30 -146 -29 -118 -39 -144 -57 -152 -12 -5 -22 -13 -22 -17 0 -18
-31 -6 -64 26 -25 23 -36 42 -36 62 0 24 38 186 55 232 3 9 23 11 77 6 40 -4
75 -9 77 -11z m-5701 -11 c3 -11 -16 -13 -109 -7 -156 10 -166 26 -15 23 89
-2 121 -6 124 -16z m762 3 c0 -9 -9 -15 -25 -15 -16 0 -25 6 -25 15 0 9 9 15
25 15 16 0 25 -6 25 -15z m-1360 -10 c0 -12 -13 -15 -55 -15 -42 0 -55 3 -55
15 0 12 13 15 55 15 42 0 55 -3 55 -15z m903 -1 c31 -3 57 -11 57 -16 0 -7
-23 -9 -67 -5 -38 4 -98 7 -135 7 -55 0 -68 3 -68 16 0 16 25 16 213 -2z m681
1 c4 -12 -5 -15 -52 -15 -72 0 -132 10 -132 21 0 5 40 9 89 9 70 0 90 -3 95
-15z m3105 -34 c17 -28 41 -53 51 -56 21 -7 25 -29 14 -84 -6 -30 -9 -32 -46
-29 -33 3 -42 9 -60 39 -19 33 -19 41 -8 108 6 39 13 71 14 71 2 0 17 -22 35
-49z m1691 32 c0 -10 -9 -46 -19 -80 -30 -100 -35 -156 -17 -192 l17 -31 -45
0 c-25 0 -47 3 -49 8 -3 5 54 222 78 300 6 19 35 14 35 -5z m-6604 -8 c16 -8
39 -15 52 -15 12 0 22 -4 22 -10 0 -16 -72 -11 -92 7 -16 14 -24 33 -14 33 2
0 17 -7 32 -15z m398 9 c78 -11 56 -30 -31 -26 -88 4 -103 7 -103 22 0 11 64
13 134 4z m1529 -4 c20 0 37 -4 37 -10 0 -6 -27 -10 -60 -10 -49 0 -60 3 -60
16 0 12 6 15 23 10 12 -3 39 -6 60 -6z m-1383 -15 c0 -10 -10 -15 -30 -15 -29
0 -38 9 -23 23 13 13 53 7 53 -8z m883 -1 c42 -4 77 -11 77 -15 0 -10 -203
-12 -237 -3 -13 4 -23 13 -23 22 0 12 10 14 53 9 28 -3 87 -9 130 -13z m691
-5 c16 -15 2 -18 -57 -12 -40 4 -57 10 -57 20 0 12 10 14 53 8 28 -4 56 -11
61 -16z m-1361 4 c46 -4 67 -10 67 -19 0 -11 -21 -13 -107 -8 -120 6 -133 9
-133 24 0 11 72 13 173 3z m6247 -3 c0 -5 -27 -51 -60 -101 -33 -50 -60 -87
-60 -83 0 5 14 51 31 101 29 89 32 93 60 93 16 0 29 -4 29 -10z m-6785 -10 c2
-3 1 -11 -3 -17 -10 -17 -102 -4 -102 14 0 10 12 13 51 12 27 -2 52 -5 54 -9z
m1365 -5 c0 -8 -9 -15 -20 -15 -11 0 -20 7 -20 15 0 8 9 15 20 15 11 0 20 -7
20 -15z m749 -1 c10 -9 -8 -10 -86 -6 -46 2 -83 8 -83 14 0 9 159 1 169 -8z
m-1887 -18 c5 -8 -19 -12 -79 -14 -97 -3 -115 1 -107 23 5 12 20 14 93 8 47
-3 89 -11 93 -17z m656 17 c49 -3 82 -10 82 -17 0 -8 -41 -10 -135 -8 -110 3
-135 6 -135 18 0 16 50 18 188 7z m710 -10 c4 -15 -31 -17 -127 -7 -94 10 -73
25 31 22 62 -2 93 -7 96 -15z m-1833 -3 c3 -5 26 -10 51 -10 38 0 44 -3 44
-21 0 -20 -4 -21 -47 -14 -52 7 -73 20 -73 41 0 16 16 19 25 4z m1980 1 c3 -5
1 -12 -5 -16 -14 -9 -100 5 -100 16 0 12 97 12 105 0z m458 2 c-7 -2 -19 -2
-25 0 -7 3 -2 5 12 5 14 0 19 -2 13 -5z m-1873 -19 c0 -11 -8 -14 -27 -12 -39
4 -42 28 -4 28 21 0 31 -5 31 -16z m955 -7 c7 -6 -21 -7 -84 -3 -52 3 -109 6
-128 6 -18 0 -33 4 -33 10 0 12 232 1 245 -13z m625 8 c0 -12 -13 -15 -60 -15
-47 0 -60 3 -60 15 0 12 13 15 60 15 47 0 60 -3 60 -15z m490 5 l55 -7 -70 0
c-38 -1 -83 3 -100 7 -27 7 -25 8 15 8 25 0 70 -3 100 -8z m-1842 -6 c63 -8
69 -24 9 -24 -80 0 -197 13 -197 21 0 10 112 12 188 3z m1527 -3 c34 -8 28 -9
-42 -10 -50 -1 -83 3 -83 9 0 12 69 12 125 1z m5062 -6 c8 -9 13 -19 9 -22 -7
-7 -36 16 -36 28 0 13 10 11 27 -6z m-7147 -10 c0 -11 -12 -15 -50 -15 -38 0
-50 4 -50 15 0 11 12 15 50 15 38 0 50 -4 50 -15z m1370 0 c0 -8 -9 -15 -20
-15 -11 0 -20 7 -20 15 0 8 9 15 20 15 11 0 20 -7 20 -15z m855 5 c4 -6 -7
-10 -24 -10 -17 0 -31 5 -31 10 0 6 11 10 24 10 14 0 28 -4 31 -10z m-2029
-10 c24 0 34 -5 34 -15 0 -11 -12 -15 -49 -15 -84 0 -141 11 -141 28 0 12 11
14 61 8 34 -3 77 -6 95 -6z m677 3 c76 -5 97 -9 97 -21 0 -12 -11 -14 -67 -9
-38 4 -98 7 -135 7 -54 0 -68 3 -68 15 0 17 23 18 173 8z m732 -3 c4 -6 -30
-10 -94 -10 -61 0 -101 4 -101 10 0 6 38 10 94 10 53 0 98 -4 101 -10z m890
-12 c6 -5 -32 -6 -100 -2 -61 3 -114 11 -120 16 -6 6 31 7 100 3 61 -4 114
-12 120 -17z m-2682 -6 c38 -3 47 -8 47 -23 0 -14 -7 -19 -30 -19 -43 0 -100
26 -100 46 0 12 5 14 18 8 9 -4 38 -9 65 -12z m1927 3 c0 -16 -12 -18 -59 -9
-46 10 -38 24 14 24 33 0 45 -4 45 -15z m-1410 -10 c0 -9 -9 -15 -25 -15 -16
0 -25 6 -25 15 0 9 9 15 25 15 16 0 25 -6 25 -15z m258 -1 c12 -2 22 -11 22
-20 0 -12 -9 -14 -42 -10 -24 3 -78 8 -120 12 -53 4 -78 10 -78 18 0 10 23 12
98 9 53 -2 107 -6 120 -9z m637 6 c63 -6 58 -7 -57 -8 -75 -1 -129 2 -133 8
-7 11 81 12 190 0z m700 0 c4 -6 -20 -10 -64 -10 -38 0 -73 5 -76 10 -4 6 20
10 64 10 38 0 73 -4 76 -10z m920 -11 c5 -5 -16 -9 -51 -9 -96 0 -214 12 -214
22 0 11 251 -1 265 -13z m4123 -32 c-1 -62 -13 -87 -43 -87 -25 0 -29 8 -25
44 2 26 50 97 61 91 4 -3 7 -24 7 -48z m-4850 28 c12 -12 -7 -14 -76 -8 -40 3
-72 10 -72 16 0 10 137 3 148 -8z m2798 -32 c11 -27 21 -52 23 -57 4 -9 -137
-2 -146 7 -2 2 2 25 9 51 12 45 13 46 54 46 40 0 42 -1 60 -47z m218 30 c15
-4 17 -11 12 -47 -4 -22 -10 -44 -15 -49 -4 -4 -40 -4 -79 -1 -68 6 -72 8 -95
43 -12 20 -21 44 -19 54 3 17 12 18 90 12 48 -4 95 -9 106 -12z m2000 -25 c7
-11 1 -35 -19 -84 -36 -88 -39 -90 -69 -71 l-25 17 31 90 c29 88 31 91 51 77
11 -7 25 -21 31 -29z m-7144 12 c0 -17 -5 -19 -32 -14 -49 8 -58 12 -58 24 0
5 20 10 45 10 38 0 45 -3 45 -20z m878 4 c85 -5 112 -10 112 -20 0 -11 -19
-13 -102 -9 -134 8 -188 14 -188 24 0 15 15 22 40 17 14 -3 76 -8 138 -12z
m502 6 c0 -5 -7 -10 -15 -10 -8 0 -15 5 -15 10 0 6 7 10 15 10 8 0 15 -4 15
-10z m245 -11 c5 -5 -32 -9 -98 -9 -92 0 -107 2 -107 16 0 15 11 16 98 10 53
-4 101 -12 107 -17z m625 11 c0 -5 -18 -10 -40 -10 -22 0 -40 5 -40 10 0 6 18
10 40 10 22 0 40 -4 40 -10z m238 -9 c14 -1 21 -5 16 -12 -6 -11 -188 -4 -207
8 -22 13 10 18 85 12 46 -4 93 -8 106 -8z m680 5 c14 -15 -14 -17 -122 -10
-67 4 -116 11 -116 17 0 10 227 4 238 -7z m4053 4 c17 -10 28 -40 14 -40 -15
0 -54 33 -49 41 7 11 11 11 35 -1z m-7032 -6 c41 -5 61 -11 61 -20 0 -11 -21
-14 -89 -14 -98 0 -121 5 -121 26 0 16 47 18 149 8z m1560 -10 c1 -1 0 -7 -3
-13 -4 -5 -23 -7 -44 -4 -44 7 -46 8 -37 23 6 9 71 5 84 -6z m-1929 -14 c43
-4 56 -9 58 -24 4 -17 -2 -18 -57 -14 -38 3 -68 10 -77 20 -18 18 -10 43 9 31
7 -4 37 -10 67 -13z m2745 -8 c-8 -8 -25 10 -19 20 4 6 9 5 15 -3 4 -7 6 -15
4 -17z m688 21 c-7 -2 -21 -2 -30 0 -10 3 -4 5 12 5 17 0 24 -2 18 -5z m2041
-34 c25 -22 46 -45 46 -50 0 -5 -13 -9 -29 -9 -22 0 -37 10 -61 40 -28 36 -33
60 -11 60 5 0 29 -18 55 -41z m-4964 16 c0 -8 -9 -15 -20 -15 -11 0 -20 7 -20
15 0 8 9 15 20 15 11 0 20 -7 20 -15z m965 5 c25 -11 -127 -11 -205 0 -45 6
-33 7 65 8 66 0 129 -3 140 -8z m645 0 c0 -6 -30 -10 -70 -10 -40 0 -70 4 -70
10 0 6 30 10 70 10 40 0 70 -4 70 -10z m925 -11 c5 -5 -19 -9 -62 -9 -99 0
-193 11 -193 23 0 12 241 -1 255 -14z m563 15 c28 -4 52 -10 52 -13 0 -10
-154 0 -164 10 -12 11 35 12 112 3z m-2839 -10 c52 -11 39 -34 -16 -29 -27 3
-83 7 -125 11 -43 3 -78 10 -78 15 0 10 171 12 219 3z m1541 -4 c0 -6 -30 -10
-70 -10 -40 0 -70 4 -70 10 0 6 30 10 70 10 40 0 70 -4 70 -10z m-2141 -9 c22
-14 3 -31 -35 -31 -27 0 -34 4 -34 20 0 15 7 20 28 20 15 0 33 -4 41 -9z
m1001 -28 c0 -10 -9 -13 -32 -9 -18 3 -80 8 -138 12 -58 3 -108 8 -113 11 -24
14 16 17 142 9 109 -7 141 -12 141 -23z m388 25 c-6 -18 -28 -21 -28 -4 0 9 7
16 16 16 9 0 14 -5 12 -12z m185 5 c71 -6 93 -23 30 -23 -71 0 -173 13 -173
21 0 11 49 11 143 2z m697 -3 c0 -5 -20 -10 -45 -10 -25 0 -45 5 -45 10 0 6
20 10 45 10 25 0 45 -4 45 -10z m907 -2 c26 -12 22 -13 -47 -16 -93 -4 -202 6
-195 19 9 14 209 11 242 -3z m451 5 c-15 -2 -42 -2 -60 0 -18 2 -6 4 27 4 33
0 48 -2 33 -4z m3665 -11 c10 -10 14 -22 10 -25 -7 -8 -43 21 -43 35 0 14 16
9 33 -10z m-7040 -9 c26 -15 -6 -23 -97 -23 -100 0 -125 7 -111 31 6 9 189 3
208 -8z m1506 1 c10 -9 -14 -24 -39 -24 -30 0 -45 13 -35 30 5 8 62 4 74 -6z
m749 2 c13 -13 -10 -16 -96 -10 -51 4 -92 11 -92 17 0 10 177 3 188 -7z m1267
4 c4 -6 -10 -10 -34 -10 -22 0 -43 5 -46 10 -4 6 10 10 34 10 22 0 43 -4 46
-10z m3429 -106 c-15 -43 -30 -82 -34 -87 -3 -4 -15 2 -25 13 -18 20 -19 23
-2 69 9 26 24 65 33 86 l15 38 21 -20 20 -20 -28 -79z m-7356 76 c30 0 42 -4
42 -15 0 -11 -13 -15 -55 -15 -63 0 -105 16 -105 40 0 16 4 16 38 4 20 -7 56
-13 80 -14z m2111 14 c2 -2 2 -6 -1 -10 -9 -9 -158 8 -158 18 0 9 149 1 159
-8z m629 -2 c3 -9 -2 -13 -14 -10 -9 1 -19 9 -22 16 -3 9 2 13 14 10 9 -1 19
-9 22 -16z m679 12 c-3 -3 -12 -4 -19 -1 -8 3 -5 6 6 6 11 1 17 -2 13 -5z
m238 -15 c5 -5 -11 -9 -40 -9 -75 0 -155 12 -155 22 0 12 181 -1 195 -13z
m400 11 l30 -8 -35 -1 c-19 0 -42 4 -50 9 -12 8 -11 10 5 9 11 -1 34 -5 50 -9z
m1335 -32 c0 -9 -33 -11 -42 -2 -3 3 -3 14 -1 25 5 19 7 19 24 3 11 -9 19 -21
19 -26z m1645 -115 c-5 -14 -115 -19 -115 -6 0 4 24 43 53 87 l52 80 8 -75 c4
-41 5 -80 2 -86z m-6545 132 c0 -8 -9 -15 -20 -15 -11 0 -20 7 -20 15 0 8 9
15 20 15 11 0 20 -7 20 -15z m898 8 c45 -3 82 -9 82 -12 0 -9 -209 -1 -245 9
-26 7 -23 8 25 9 30 1 92 -2 138 -6z m1582 -2 c36 -3 65 -10 65 -15 0 -10 -87
-10 -192 0 -35 4 -63 10 -63 15 0 10 90 10 190 0z m798 -1 c12 0 22 -4 22 -10
0 -5 -20 -10 -45 -10 -35 0 -45 4 -45 16 0 12 6 15 23 10 12 -3 32 -6 45 -6z
m-3040 -6 c31 -4 52 -12 52 -19 0 -9 -23 -11 -92 -8 -116 5 -158 11 -158 23 0
11 118 13 198 4z m1552 -4 c0 -6 -27 -10 -60 -10 -33 0 -60 4 -60 10 0 6 27
10 60 10 33 0 60 -4 60 -10z m-2141 -9 c21 -13 4 -31 -30 -31 -22 0 -29 5 -29
20 0 21 33 28 59 11z m949 -7 c46 -5 62 -10 62 -21 0 -13 -12 -14 -77 -9 -210
17 -213 18 -213 33 0 16 29 16 228 -3z m442 0 c0 -8 -5 -12 -10 -9 -6 4 -8 11
-5 16 9 14 15 11 15 -7z m269 0 c13 -13 -20 -15 -113 -9 -59 4 -106 12 -106
17 0 10 209 2 219 -8z m631 6 c0 -5 -22 -10 -49 -10 -28 0 -53 5 -56 10 -4 6
15 10 49 10 31 0 56 -4 56 -10z m198 -6 c53 -8 36 -24 -27 -24 -75 0 -121 9
-121 25 0 12 69 11 148 -1z m736 -5 c5 -5 8 -10 5 -13 -2 -2 -64 -1 -136 2
-108 4 -133 7 -133 19 0 13 19 14 128 8 70 -4 131 -11 136 -16z m591 10 c4 -6
5 -13 2 -15 -8 -9 -127 8 -127 17 0 13 118 11 125 -2z m398 4 c-7 -2 -21 -2
-30 0 -10 3 -4 5 12 5 17 0 24 -2 18 -5z m3161 -43 c-13 -13 -49 24 -39 40 5
9 14 6 28 -9 15 -14 18 -24 11 -31z m-7176 30 c63 0 72 -2 72 -18 0 -17 -8
-18 -82 -15 -124 6 -148 11 -141 29 5 12 15 15 42 10 20 -3 69 -6 109 -6z
m3776 4 c72 -10 54 -25 -26 -22 -46 2 -73 7 -76 16 -4 14 29 16 102 6z m-4129
-34 c42 0 55 -3 55 -15 0 -12 -13 -15 -59 -15 -75 0 -111 13 -111 40 0 19 1
20 30 5 16 -8 54 -15 85 -15z m1920 21 c3 -5 0 -13 -5 -16 -15 -9 -60 3 -60
15 0 13 57 13 65 1z m161 -1 c30 0 54 -4 54 -10 0 -11 -84 -13 -142 -4 -21 4
-35 11 -32 16 4 6 20 7 36 4 17 -3 55 -6 84 -6z m689 0 c4 -6 -7 -10 -24 -10
-17 0 -31 5 -31 10 0 6 11 10 24 10 14 0 28 -4 31 -10z m243 -6 c17 -3 32 -9
32 -14 0 -6 -49 -10 -115 -10 -63 0 -115 2 -115 4 0 2 -3 12 -6 20 -6 14 4 16
82 11 49 -4 104 -8 122 -11z m660 0 c39 -8 25 -27 -15 -20 -21 3 -73 6 -115 6
-62 0 -78 3 -78 15 0 12 15 14 93 9 50 -3 102 -7 115 -10z m3768 -2 c15 -24
-41 -173 -62 -165 -8 3 -14 13 -14 22 0 21 51 161 59 161 3 0 11 -8 17 -18z
m-6946 -7 c0 -8 -7 -15 -15 -15 -8 0 -15 7 -15 15 0 8 7 15 15 15 8 0 15 -7
15 -15z m953 5 c20 0 37 -4 37 -8 0 -11 -229 -2 -255 10 -13 5 17 7 80 3 55
-3 117 -5 138 -5z m2837 0 c0 -5 -16 -10 -35 -10 -19 0 -35 5 -35 10 0 6 16
10 35 10 19 0 35 -4 35 -10z m198 0 c41 0 72 -4 72 -10 0 -11 -160 -14 -197
-4 -39 11 -26 27 15 20 20 -3 70 -6 110 -6z m-3740 -6 c37 -5 52 -11 52 -22 0
-13 -14 -14 -97 -9 -54 4 -113 7 -130 7 -23 0 -33 5 -33 15 0 12 15 15 78 15
42 0 101 -3 130 -6z m1552 -4 c0 -5 -25 -10 -55 -10 -30 0 -55 5 -55 10 0 6
25 10 55 10 30 0 55 -4 55 -10z m1505 0 c4 -6 -7 -10 -24 -10 -17 0 -31 5 -31
10 0 6 11 10 24 10 14 0 28 -4 31 -10z m-2245 -9 c0 -6 -4 -13 -10 -16 -5 -3
-10 1 -10 9 0 9 5 16 10 16 6 0 10 -4 10 -9z m265 -12 c5 -5 -17 -9 -60 -9
-84 0 -176 10 -171 19 6 10 220 1 231 -10z m640 11 c4 -6 -18 -10 -59 -10 -37
0 -66 4 -66 10 0 6 26 10 59 10 33 0 63 -4 66 -10z m939 -11 c5 -5 8 -11 5
-13 -2 -3 -64 -2 -136 1 -103 5 -133 9 -138 21 -4 12 13 13 127 7 73 -4 137
-11 142 -16z m602 8 c4 -4 5 -9 3 -11 -9 -9 -159 7 -159 17 0 11 145 6 156 -6z
m889 -8 c5 -5 -45 -9 -118 -9 -103 0 -127 3 -127 14 0 12 20 13 118 9 64 -3
121 -9 127 -14z m-4735 -4 c0 -10 -10 -15 -30 -15 -20 0 -30 5 -30 15 0 10 10
15 30 15 20 0 30 -5 30 -15z m216 5 c48 0 54 -2 54 -21 0 -20 -4 -21 -52 -15
-29 3 -81 6 -115 6 -58 0 -63 2 -63 21 0 21 3 22 61 15 34 -3 86 -6 115 -6z
m797 -7 c5 -3 4 -10 -1 -15 -7 -7 -60 -8 -151 -3 -116 6 -141 10 -141 22 0 14
19 15 143 8 78 -4 146 -9 150 -12z m1495 -1 c3 -10 -14 -12 -74 -10 -52 2 -79
7 -82 16 -3 10 14 12 74 10 52 -2 79 -7 82 -16z m1502 -8 c0 -10 -11 -12 -47
-8 -60 7 -75 12 -70 21 3 5 30 6 61 5 39 -3 56 -8 56 -18z m-4275 6 c3 -5 1
-10 -4 -10 -6 0 -11 5 -11 10 0 6 2 10 4 10 3 0 8 -4 11 -10z m1570 -10 c27
-5 -5 -8 -102 -9 -114 -1 -143 2 -143 12 0 11 21 13 103 9 56 -2 120 -8 142
-12z m455 5 c0 -9 -9 -15 -25 -15 -24 0 -32 10 -18 23 12 13 43 7 43 -8z m854
9 c29 -11 16 -25 -21 -22 -42 3 -59 28 -20 28 14 0 32 -3 41 -6z m234 -10 c17
-3 32 -9 32 -15 0 -6 -40 -9 -102 -7 -83 2 -103 6 -106 18 -2 13 9 15 70 13
40 -2 88 -6 106 -9z m712 -5 c9 -5 -40 -9 -117 -9 -117 0 -154 6 -137 22 8 8
237 -4 254 -13z m1412 5 c37 -3 71 -10 74 -16 5 -8 -16 -9 -71 -5 -43 4 -98 7
-122 7 -32 0 -43 4 -43 15 0 13 9 15 48 11 26 -3 77 -8 114 -12z m2369 0 c16
-14 15 -19 -9 -80 -22 -56 -28 -63 -46 -58 -12 4 -23 8 -25 10 -4 4 52 144 58
144 3 0 12 -7 22 -16z m87 -8 c3 -12 -1 -17 -10 -14 -7 3 -15 13 -16 22 -3 12
1 17 10 14 7 -3 15 -13 16 -22z m-7090 -3 c-5 -25 -28 -28 -28 -4 0 12 6 21
16 21 9 0 14 -7 12 -17z m1657 7 c4 -6 -30 -10 -94 -10 -61 0 -101 4 -101 10
0 6 38 10 94 10 53 0 98 -4 101 -10z m2165 0 c0 -5 -22 -10 -49 -10 -28 0 -53
5 -56 10 -4 6 15 10 49 10 31 0 56 -4 56 -10z m-3602 -7 c59 -4 82 -10 82 -19
0 -16 -31 -17 -168 -8 -67 5 -92 11 -92 20 0 16 46 18 178 7z m1572 -9 c0 -12
-9 -14 -42 -12 -59 4 -63 28 -4 28 35 0 46 -4 46 -16z m2244 10 c32 -12 3 -24
-57 -24 -69 0 -107 8 -107 21 0 10 139 12 164 3z m1853 -14 c29 -9 -29 -6
-207 10 -85 8 -81 8 42 4 76 -3 150 -9 165 -14z m-3912 -1 c4 -6 5 -12 2 -15
-8 -8 -137 8 -137 17 0 13 128 11 135 -2z m635 -4 c0 -8 -7 -15 -15 -15 -16 0
-20 12 -8 23 11 12 23 8 23 -8z m303 -2 c23 -14 -2 -23 -60 -22 -116 2 -196
13 -201 27 -3 11 19 12 124 7 71 -4 132 -9 137 -12z m387 13 c0 -11 -19 -15
-25 -6 -3 5 1 10 9 10 9 0 16 -2 16 -4z m230 -11 c11 -13 0 -15 -89 -15 -83 0
-101 3 -101 15 0 12 17 15 89 15 66 0 92 -4 101 -15z m595 5 c3 -5 -3 -10 -14
-10 -12 0 -21 5 -21 10 0 6 6 10 14 10 8 0 18 -4 21 -10z m208 -6 c47 -4 77
-11 77 -18 0 -15 -209 -9 -227 6 -25 20 -13 30 30 24 23 -3 77 -9 120 -12z
m467 6 c0 -5 -9 -10 -19 -10 -11 0 -23 5 -26 10 -4 6 5 10 19 10 14 0 26 -4
26 -10z m189 -5 c9 -9 -4 -10 -76 -7 -43 2 -73 8 -73 14 0 11 138 4 149 -7z
m-5339 -5 c0 -5 -9 -10 -19 -10 -11 0 -23 5 -26 10 -4 6 5 10 19 10 14 0 26
-4 26 -10z m243 -9 c20 -1 37 -6 37 -12 0 -7 -14 -9 -37 -5 -21 3 -75 8 -120
12 -46 3 -81 9 -79 13 3 4 40 3 83 0 43 -4 95 -8 116 -8z m745 3 c20 -3 32
-11 32 -21 0 -13 -9 -14 -52 -9 -29 3 -95 8 -145 12 -72 5 -93 10 -93 21 0 12
18 14 113 8 61 -3 127 -8 145 -11z m692 6 c0 -12 -196 -12 -225 0 -13 5 25 9
103 9 75 1 122 -3 122 -9z m833 -9 c9 -9 -6 -11 -62 -9 -53 2 -76 7 -79 17 -4
11 8 13 63 9 37 -3 72 -11 78 -17z m1497 -3 c0 -12 -73 -6 -77 7 -2 7 12 9 37
7 22 -2 40 -8 40 -14z m2449 6 c10 -9 -126 -3 -139 6 -10 7 9 8 60 4 41 -4 77
-8 79 -10z m657 -31 c52 -47 67 -68 41 -61 -14 3 -113 108 -103 108 4 0 32
-21 62 -47z m372 23 c3 -12 -1 -17 -10 -14 -7 3 -15 13 -16 22 -3 12 1 17 10
14 7 -3 15 -13 16 -22z m-5725 -1 c1 -5 -6 -11 -15 -13 -11 -2 -18 3 -18 13 0
17 30 18 33 0z m878 5 c32 -18 21 -25 -31 -22 -35 3 -50 8 -50 18 0 17 52 19
81 4z m2809 0 c12 -8 9 -10 -12 -10 -15 0 -30 5 -33 10 -8 13 25 13 45 0z
m-4152 -6 c72 -9 65 -24 -11 -24 -97 0 -217 12 -217 21 0 10 151 12 228 3z
m712 -6 c0 -10 -25 -12 -100 -10 -55 2 -100 8 -100 13 0 5 45 9 100 9 73 0
100 -3 100 -12z m846 2 c24 0 34 -5 34 -15 0 -17 -30 -19 -129 -9 -45 5 -61
11 -61 22 0 12 11 14 61 8 34 -3 77 -6 95 -6z m661 3 c55 -4 84 -10 87 -19 4
-11 -15 -13 -102 -8 -132 6 -172 12 -172 24 0 11 70 13 187 3z m687 -8 c6 -17
-9 -18 -91 -9 -76 9 -65 24 16 24 52 0 70 -4 75 -15z m885 -10 c12 -12 -3 -13
-110 -8 -91 4 -128 9 -139 20 -13 14 -1 15 110 9 86 -5 129 -12 139 -21z
m1524 14 c-7 -7 -21 -7 -44 -1 l-34 10 45 1 c31 1 41 -2 33 -10z m796 -61
c-11 -22 -25 -38 -30 -36 -15 5 -15 7 0 61 13 45 15 47 32 31 18 -16 18 -18
-2 -56z m-7062 56 c-3 -3 -12 -4 -19 -1 -8 3 -5 6 6 6 11 1 17 -2 13 -5z m266
-10 c47 -7 49 -24 2 -24 -69 0 -235 23 -235 33 0 9 147 3 233 -9z m1496 10
c46 -10 38 -24 -14 -24 -33 0 -45 4 -45 15 0 16 12 18 59 9z m2280 -10 c3 -2
0 -9 -6 -15 -16 -16 -125 1 -131 20 -4 12 7 13 64 7 38 -4 70 -9 73 -12z
m1204 9 c-7 -2 -19 -2 -25 0 -7 3 -2 5 12 5 14 0 19 -2 13 -5z m-3284 -9 c57
-12 32 -24 -49 -24 -64 0 -80 3 -80 15 0 16 68 21 129 9z m671 -9 c0 -9 -9
-15 -25 -15 -16 0 -25 6 -25 15 0 9 9 15 25 15 16 0 25 -6 25 -15z m925 -6 c5
-5 -41 -9 -108 -9 -97 0 -117 3 -117 15 0 13 16 14 108 9 59 -4 111 -10 117
-15z m605 6 c11 -13 6 -15 -34 -15 -34 0 -46 4 -46 15 0 10 10 15 34 15 18 0
39 -7 46 -15z m873 -4 c8 -8 -3 -11 -43 -11 -81 0 -160 11 -160 23 0 14 188 3
203 -12z m395 12 c-16 -2 -40 -2 -55 0 -16 2 -3 4 27 4 30 0 43 -2 28 -4z
m-4875 -19 c106 -5 117 -8 117 -25 0 -15 -7 -19 -32 -19 -59 0 -253 23 -262
31 -15 13 4 28 32 24 15 -2 80 -7 145 -11z m754 6 c18 0 33 -4 33 -8 0 -12
-233 -2 -245 10 -7 7 20 9 84 4 52 -3 109 -6 128 -6z m852 -6 c3 -2 0 -8 -5
-13 -14 -13 -117 2 -122 18 -4 11 7 13 59 7 35 -4 66 -10 68 -12z m684 9 c109
-10 77 -24 -50 -21 -82 2 -118 7 -121 16 -4 14 59 16 171 5z m1556 -10 c3 -2
0 -7 -5 -11 -15 -13 -177 1 -182 16 -3 10 15 11 90 6 51 -4 95 -8 97 -11z
m2171 7 c11 -7 0 -10 -37 -10 -28 0 -55 5 -58 10 -8 13 75 13 95 0z m635 -10
c15 -16 16 -23 6 -33 -10 -9 -16 -7 -32 12 -31 38 -7 57 26 21z m-3550 0 c4
-6 -5 -10 -19 -10 -14 0 -26 5 -26 10 0 6 9 10 19 10 11 0 23 -4 26 -10z
m1505 0 c0 -5 -13 -10 -29 -10 -17 0 -33 5 -36 10 -4 6 8 10 29 10 20 0 36 -4
36 -10z m195 -11 c5 -5 -25 -9 -73 -9 -68 0 -82 3 -82 16 0 13 11 14 73 8 39
-3 76 -10 82 -15z m265 11 c0 -5 -11 -10 -25 -10 -14 0 -25 5 -25 10 0 6 11
10 25 10 14 0 25 -4 25 -10z m1090 -11 c0 -5 -7 -9 -15 -9 -8 0 -15 7 -15 15
0 9 6 12 15 9 8 -4 15 -10 15 -15z m-7225 -9 c55 0 74 -4 78 -15 9 -23 -8 -27
-86 -19 -86 8 -117 18 -117 39 0 11 5 13 26 5 14 -6 58 -10 99 -10z m1925 4
c0 -9 -5 -14 -12 -12 -18 6 -21 28 -4 28 9 0 16 -7 16 -16z m229 10 c58 -12
31 -24 -51 -24 -88 0 -128 7 -128 21 0 10 132 12 179 3z m674 0 c14 -14 -3
-19 -57 -16 -31 2 -56 8 -56 13 0 10 103 13 113 3z m950 -10 c47 -14 5 -20
-110 -17 -139 4 -153 7 -153 24 0 8 33 9 123 4 67 -3 130 -9 140 -11z m588 6
c17 0 29 -5 29 -13 0 -10 -18 -11 -77 -5 -43 3 -84 7 -90 7 -7 1 -13 6 -13 12
0 8 18 10 61 5 34 -3 75 -6 90 -6z m627 -8 c3 -9 -2 -13 -14 -10 -9 1 -19 9
-22 16 -3 9 2 13 14 10 9 -1 19 -9 22 -16z m998 8 c24 0 44 -4 44 -10 0 -6
-27 -10 -60 -10 -48 0 -60 3 -60 16 0 11 5 14 16 10 9 -3 36 -6 60 -6z m247 3
c-13 -2 -33 -2 -45 0 -13 2 -3 4 22 4 25 0 35 -2 23 -4z m1392 -4 c11 -16 -4
-59 -20 -59 -21 0 -26 16 -14 44 13 28 24 33 34 15z m-6113 -15 c5 -3 8 -15 8
-26 0 -21 -3 -21 -120 -14 -158 9 -180 13 -180 39 0 19 4 20 142 13 79 -4 146
-10 150 -12z m1526 -1 c6 -21 -154 -18 -162 2 -5 14 6 15 76 13 54 -2 83 -7
86 -15z m2206 11 c89 -13 45 -25 -81 -22 -90 2 -128 7 -131 16 -4 13 127 17
212 6z m-2944 -14 c0 -5 -16 -10 -35 -10 -19 0 -35 5 -35 10 0 6 16 10 35 10
19 0 35 -4 35 -10z m844 4 c29 -11 16 -24 -24 -24 -29 0 -40 4 -40 15 0 16 35
20 64 9z m840 -7 c83 -8 121 -16 124 -25 3 -11 -9 -13 -59 -8 -35 3 -99 8
-141 12 -58 4 -78 9 -78 20 0 16 -2 16 154 1z m554 1 c-3 -8 -22 -13 -48 -13
-26 0 -45 5 -47 13 -3 8 10 12 47 12 37 0 50 -4 48 -12z m1042 -15 c13 -12 -2
-13 -110 -11 -108 3 -125 5 -128 20 -3 15 8 16 110 11 77 -4 118 -10 128 -20z
m-5432 0 c-5 -25 -28 -28 -28 -4 0 12 6 21 16 21 9 0 14 -7 12 -17z m1669 7
c20 0 33 -5 33 -13 0 -10 -24 -12 -102 -9 -119 3 -148 8 -148 24 0 8 26 9 92
4 50 -3 106 -6 125 -6z m688 0 c4 -6 -25 -10 -79 -10 -51 0 -86 4 -86 10 0 6
33 10 79 10 44 0 83 -4 86 -10z m904 -5 c14 -14 -22 -19 -105 -15 -70 4 -99 9
-102 19 -4 11 14 12 99 6 57 -4 106 -9 108 -10z m1299 -3 c3 -10 -12 -12 -64
-10 -44 2 -69 7 -72 16 -3 10 12 12 64 10 44 -2 69 -7 72 -16z m1650 2 c19 -3
32 -11 32 -20 0 -12 -12 -14 -77 -8 -74 6 -103 16 -103 35 0 7 77 4 148 -7z
m-5915 -11 c4 -2 7 -11 7 -19 0 -16 -35 -18 -178 -8 -83 6 -92 9 -92 27 0 19
5 19 128 12 70 -4 130 -9 135 -12z m2220 2 c-2 -5 -25 -11 -53 -13 -40 -2 -50
0 -50 13 0 13 10 15 53 13 28 -2 51 -7 50 -13z m2221 9 c29 -11 17 -24 -21
-24 -55 0 -113 11 -113 21 0 10 110 12 134 3z m776 -4 c0 -5 -2 -10 -4 -10 -3
0 -8 5 -11 10 -3 6 -1 10 4 10 6 0 11 -4 11 -10z m515 -1 c4 -6 5 -13 2 -15
-8 -8 -107 8 -107 17 0 13 98 11 105 -2z m1599 -4 c3 -9 -1 -18 -10 -22 -19
-7 -28 2 -21 22 8 19 23 19 31 0z m-7789 -24 c78 -5 90 -9 93 -25 4 -18 -1
-19 -89 -13 -95 7 -139 24 -139 53 0 12 4 13 23 3 12 -7 62 -15 112 -18z
m1935 14 c0 -8 -4 -15 -10 -15 -5 0 -10 7 -10 15 0 8 5 15 10 15 6 0 10 -7 10
-15z m924 0 c4 -12 -4 -15 -42 -15 -26 0 -57 3 -69 6 -44 12 -23 24 41 24 48
0 65 -4 70 -15z m637 0 c-1 -15 -24 -12 -29 3 -3 9 2 13 12 10 10 -1 17 -7 17
-13z m933 -6 c16 -15 4 -16 -103 -10 -75 4 -106 10 -109 20 -4 11 14 12 99 6
57 -4 108 -11 113 -16z m606 6 c11 -13 6 -15 -38 -15 -42 0 -50 3 -46 15 4 9
19 15 39 15 18 0 38 -7 45 -15z m839 7 c30 -4 56 -13 59 -20 3 -9 -6 -11 -35
-8 -21 3 -73 8 -116 12 -42 3 -75 10 -71 15 6 10 81 10 163 1z m612 -2 c28
-16 23 -30 -11 -30 -23 0 -30 4 -30 20 0 22 12 25 41 10z m-5743 -16 c73 -6
82 -9 82 -27 0 -19 -4 -19 -132 -12 -73 4 -136 9 -140 12 -5 2 -8 13 -8 25 0
19 4 20 58 15 31 -4 94 -9 140 -13z m1446 10 c9 -3 16 -10 16 -15 0 -12 -211
0 -224 12 -11 10 183 13 208 3z m804 0 c35 -5 52 -11 52 -21 0 -11 -15 -13
-67 -11 -55 2 -68 6 -71 21 -4 19 5 20 86 11z m720 -1 c45 -3 82 -10 82 -14 0
-10 -172 -12 -219 -3 -17 4 -31 10 -31 15 0 11 54 11 168 2z m2320 -5 c-7 -20
-54 -22 -61 -4 -5 13 1 16 29 16 24 0 34 -4 32 -12z m689 0 c-3 -10 -29 -12
-93 -10 -128 4 -133 22 -5 22 78 0 102 -3 98 -12z m-4417 -13 c0 -16 -45 -21
-54 -6 -8 12 4 21 31 21 14 0 23 -6 23 -15z m850 5 c17 0 30 -7 34 -16 6 -15
0 -16 -45 -11 -28 4 -54 8 -56 11 -10 10 10 27 24 22 8 -3 27 -6 43 -6z m1381
-5 c0 -5 -12 -11 -26 -13 -18 -2 -25 1 -25 13 0 12 7 15 25 13 14 -2 26 -7 26
-13z m739 5 c8 -5 11 -12 8 -16 -10 -10 -198 6 -198 17 0 12 171 11 190 -1z
m1785 -11 c5 -5 -25 -9 -83 -9 -86 0 -103 5 -84 24 9 11 154 -2 167 -15z
m-5872 -18 c4 -1 7 -8 7 -18 0 -14 -15 -15 -152 -9 -84 4 -154 8 -156 11 -2 2
-1 12 2 22 6 17 13 18 148 6 79 -6 146 -12 151 -12z m1280 22 c37 -3 67 -10
67 -14 0 -12 -177 -12 -184 0 -14 22 9 25 117 14z m1670 -10 c4 -2 7 -8 7 -14
0 -11 -52 -11 -178 -3 -70 5 -92 10 -92 21 0 12 20 13 128 7 70 -3 130 -8 135
-11z m617 2 c11 -13 5 -15 -41 -15 -69 0 -129 10 -129 21 0 5 35 9 79 9 58 0
82 -4 91 -15z m594 -6 c-3 -5 -10 -7 -15 -3 -5 3 -7 10 -3 15 3 5 10 7 15 3 5
-3 7 -10 3 -15z m296 -5 c14 -15 3 -16 -110 -9 -92 5 -129 11 -140 22 -13 14
-2 15 110 9 94 -5 129 -11 140 -22z m-5503 -6 c-3 -8 -6 -5 -6 6 -1 11 2 17 5
13 3 -3 4 -12 1 -19z m1733 14 c0 -4 -21 -6 -47 -4 -76 5 -83 10 -15 11 34 0
62 -2 62 -7z m1503 2 c67 -12 39 -24 -53 -24 -73 0 -90 3 -90 15 0 16 70 21
143 9z m2843 -9 c17 -13 11 -14 -68 -15 -72 0 -88 3 -88 15 0 21 128 21 156 0z
m914 5 c0 -5 -4 -10 -9 -10 -6 0 -13 5 -16 10 -3 6 1 10 9 10 9 0 16 -4 16
-10z m168 -6 c6 -2 12 -8 12 -14 0 -7 -27 -10 -75 -9 -70 2 -90 11 -69 32 6 5
107 -1 132 -9z m-6846 -10 c5 -3 8 -12 8 -21 0 -13 -16 -14 -132 -8 -133 7
-157 13 -143 35 6 10 39 11 134 5 69 -4 129 -9 133 -11z m2218 6 c0 -5 -20
-10 -45 -10 -25 0 -45 5 -45 10 0 6 20 10 45 10 25 0 45 -4 45 -10z m848 -7
c2 -9 -8 -13 -32 -13 -34 0 -44 8 -29 24 11 11 56 2 61 -11z m1382 7 c0 -5
-22 -10 -50 -10 -27 0 -50 5 -50 10 0 6 23 10 50 10 28 0 50 -4 50 -10z m1060
-11 c9 -5 -41 -8 -119 -6 -97 1 -136 6 -139 14 -3 10 23 12 120 7 68 -4 130
-11 138 -15z m-5927 -19 c52 0 57 -2 57 -22 0 -20 -2 -21 -96 -15 -97 7 -144
23 -144 51 0 10 11 10 63 0 34 -8 88 -14 120 -14z m2827 20 c8 -5 11 -12 8
-16 -10 -9 -158 6 -158 17 0 12 131 11 150 -1z m918 -6 c6 -2 12 -8 12 -14 0
-13 -170 -13 -204 0 -54 20 -26 29 77 24 56 -3 108 -7 115 -10z m677 -5 c13
-14 -222 -2 -245 13 -10 6 28 7 110 4 70 -4 129 -11 135 -17z m613 4 c3 -10
-14 -13 -62 -13 -53 0 -66 3 -66 15 0 13 11 15 62 13 38 -2 63 -8 66 -15z
m1302 7 c11 -7 2 -10 -32 -10 -26 0 -50 5 -53 10 -8 13 65 13 85 0z m318 -2
c-3 -8 -24 -13 -58 -13 -34 0 -55 5 -57 13 -4 9 12 12 57 12 45 0 61 -3 58
-12z m765 -8 c16 -13 24 -27 20 -36 -5 -12 -11 -10 -34 12 -46 44 -34 62 14
24z m-6723 -8 c71 -6 85 -10 88 -25 4 -18 -4 -18 -135 -12 -76 4 -142 11 -147
15 -5 5 -6 15 -3 24 5 11 18 14 59 10 29 -3 91 -9 138 -12z m765 1 c78 -10 45
-26 -50 -24 -135 4 -208 14 -213 30 -4 12 13 13 106 7 62 -3 132 -9 157 -13z
m703 10 c-10 -2 -28 -2 -40 0 -13 2 -5 4 17 4 22 1 32 -1 23 -4z m820 1 c42
-12 22 -24 -38 -24 -47 0 -60 3 -60 15 0 16 53 21 98 9z m2233 -4 c11 0 19 -4
19 -10 0 -6 -30 -10 -69 -10 -52 0 -72 4 -82 17 -13 15 -9 16 50 10 35 -4 72
-7 82 -7z m1269 0 c19 -6 9 -8 -37 -9 -36 -1 -63 3 -63 9 0 12 64 12 100 0z
m-4227 -7 c-7 -2 -21 -2 -30 0 -10 3 -4 5 12 5 17 0 24 -2 18 -5z m885 -3 c12
0 22 -6 22 -14 0 -10 -13 -12 -52 -9 -67 6 -81 10 -72 24 4 7 21 9 43 5 20 -3
46 -6 59 -6z m669 -16 c-9 -9 -28 6 -21 18 4 6 10 6 17 -1 6 -6 8 -13 4 -17z
m876 10 c37 -3 67 -9 67 -13 0 -8 -193 -3 -218 5 -28 9 0 21 40 18 24 -2 73
-6 111 -10z m652 5 c11 -16 1 -20 -33 -13 -18 4 -29 10 -26 15 7 13 51 11 59
-2z m1688 1 c20 0 37 -4 37 -10 0 -6 -43 -10 -109 -10 -89 0 -111 3 -122 17
-13 15 -8 16 71 10 47 -4 102 -7 123 -7z m-4533 -10 c33 -11 -64 -11 -140 0
-52 7 -51 7 30 8 47 0 96 -4 110 -8z m848 0 c13 0 22 -6 22 -15 0 -17 -17 -18
-97 -9 -38 5 -53 11 -53 22 0 12 10 14 53 8 28 -3 62 -6 75 -6z m771 -6 c3 -2
0 -9 -5 -14 -16 -16 -246 2 -252 19 -4 11 17 12 124 6 71 -4 131 -9 133 -11z
m1487 5 c14 -24 -14 -29 -106 -22 -60 5 -95 12 -98 21 -5 16 193 17 204 1z
m2044 -4 c19 -23 4 -47 -27 -43 -22 2 -29 9 -31 31 -3 23 0 27 21 27 14 0 30
-7 37 -15z m-6522 -11 c19 -3 32 -11 32 -20 0 -10 -7 -13 -22 -10 -13 3 -79 8
-148 11 -127 7 -144 10 -135 25 5 9 205 4 273 -6z m690 -1 c17 -3 32 -10 32
-16 0 -6 -28 -8 -82 -4 -46 4 -109 7 -140 7 -47 0 -58 3 -58 16 0 15 12 16
108 10 59 -4 122 -10 140 -13z m3852 -4 c0 -5 -4 -9 -10 -9 -5 0 -10 7 -10 16
0 8 5 12 10 9 6 -3 10 -10 10 -16z m581 4 c13 -15 9 -16 -56 -10 -38 4 -94 7
-122 7 -29 0 -53 5 -53 10 0 6 43 10 109 10 89 0 111 -3 122 -17z m-5827 -13
c5 -5 6 -15 3 -22 -4 -11 -21 -12 -83 -7 -44 4 -107 8 -141 8 -58 1 -63 3 -63
22 0 22 1 22 138 15 75 -4 141 -11 146 -16z m2211 11 c-6 -6 -25 -6 -45 -1
l-35 8 45 1 c27 1 40 -3 35 -8z m219 -11 c17 -17 1 -19 -87 -13 -68 5 -87 9
-87 21 0 13 13 14 82 8 46 -4 87 -11 92 -16z m654 3 c2 -9 -10 -13 -42 -13
-35 0 -46 4 -46 16 0 12 9 14 42 12 23 -2 43 -9 46 -15z m952 -9 c14 -14 2
-15 -120 -9 -149 7 -160 9 -160 26 0 19 260 3 280 -17z m395 16 c-3 -5 -15
-10 -25 -10 -10 0 -22 5 -25 10 -4 6 7 10 25 10 18 0 29 -4 25 -10z m219 -11
c18 -16 1 -18 -91 -12 -70 4 -90 9 -86 19 4 10 24 12 86 7 45 -3 86 -9 91 -14z
m1266 5 c0 -9 -7 -14 -17 -12 -24 4 -27 23 -3 25 12 1 20 -4 20 -13z m154 6
c23 0 51 -7 62 -16 17 -14 12 -15 -75 -10 -51 3 -95 7 -98 10 -13 13 12 27 39
22 17 -3 49 -6 72 -6z m859 -9 c8 -8 -14 -11 -90 -11 -81 0 -103 3 -114 16
-13 16 -6 17 89 12 58 -3 108 -10 115 -17z m-7520 -3 c12 -7 67 -15 122 -18
88 -4 100 -7 103 -24 4 -18 -2 -18 -95 -14 -105 6 -148 19 -156 49 -6 22 -3
23 26 7z m1665 -13 c6 -2 12 -12 12 -21 0 -14 -12 -15 -97 -10 -172 11 -213
17 -213 30 0 7 2 15 4 17 6 5 276 -9 294 -16z m2191 19 c43 -5 61 -11 61 -21
0 -12 -16 -13 -92 -7 -98 7 -108 9 -108 25 0 11 52 12 139 3z m2225 0 c27 -4
46 -12 46 -19 0 -9 -18 -12 -67 -8 -122 7 -173 14 -173 24 0 10 124 12 194 3z
m711 -4 c-3 -5 -10 -10 -16 -10 -5 0 -9 5 -9 10 0 6 7 10 16 10 8 0 12 -4 9
-10z m-5912 -16 c68 -6 77 -9 77 -27 0 -19 -4 -20 -137 -13 -75 4 -141 10
-145 12 -4 3 -8 14 -8 26 0 19 4 20 68 14 37 -3 102 -9 145 -12z m1448 -4 c21
-6 -14 -7 -91 -3 -69 3 -129 10 -135 15 -12 12 171 1 226 -12z m839 4 c0 -12
-10 -14 -47 -12 -66 4 -70 28 -4 28 39 0 51 -4 51 -16z m2213 6 c9 0 17 -4 17
-10 0 -5 -22 -10 -49 -10 -36 0 -51 4 -55 16 -5 14 -1 16 31 10 21 -3 46 -6
56 -6z m172 -10 c18 -20 17 -20 -11 -20 -46 0 -104 12 -104 21 0 7 22 11 81
17 9 1 24 -7 34 -18z m2153 -34 c30 -28 42 -56 24 -56 -14 0 -103 96 -96 103
8 8 24 -3 72 -47z m512 45 c0 -20 -13 -41 -25 -41 -21 0 -28 19 -15 35 14 17
40 20 40 6z m-4882 -7 c12 -4 22 -11 22 -18 0 -7 -24 -10 -75 -8 -57 3 -75 7
-75 18 0 10 14 14 53 14 28 0 62 -3 75 -6z m676 -9 c4 -11 -2 -15 -24 -15 -20
0 -30 5 -30 15 0 9 9 15 24 15 13 0 26 -7 30 -15z m189 0 c53 -5 77 -11 74
-18 -5 -16 -209 -10 -219 6 -15 23 -7 29 30 23 20 -3 72 -8 115 -11z m685 -1
c39 -3 72 -11 72 -17 0 -7 -42 -8 -132 -3 -73 4 -134 9 -136 11 -2 2 -1 9 3
15 5 8 26 10 64 6 31 -3 89 -8 129 -12z m2123 6 c32 -17 22 -26 -31 -29 -53
-2 -53 -2 -44 23 7 18 46 21 75 6z m919 -45 c-13 -46 -30 -69 -30 -41 0 22 31
98 38 92 2 -3 -1 -26 -8 -51z m-5962 29 c73 -8 65 -24 -11 -24 -122 0 -217 12
-217 27 0 14 68 13 228 -3z m3746 10 c29 -4 46 -12 46 -20 0 -11 -14 -12 -62
-8 -76 7 -88 10 -88 24 0 11 36 13 104 4z m685 -3 c36 -3 66 -10 68 -16 5 -17
-233 -7 -247 11 -11 12 -3 14 51 13 35 -1 93 -4 128 -8z m841 -6 c0 -12 -15
-15 -79 -15 -58 0 -82 4 -91 15 -11 13 -1 15 79 15 74 0 91 -3 91 -15z m80 0
c11 -13 8 -15 -19 -15 -30 0 -39 9 -24 23 11 11 30 8 43 -8z m-6032 -11 c29
-4 42 -10 42 -20 0 -13 -15 -15 -102 -9 -177 10 -208 15 -208 32 0 13 16 14
113 8 61 -3 131 -8 155 -11z m1387 -5 c22 -6 11 -8 -40 -4 -38 3 -89 5 -112 5
-24 0 -43 4 -43 9 0 11 152 3 195 -10z m865 6 c0 -16 -42 -20 -99 -9 -53 11
-34 24 34 24 51 0 65 -3 65 -15z m2334 9 c31 -12 16 -24 -29 -24 -25 0 -45 4
-45 9 0 17 45 26 74 15z m2000 -29 c-4 -17 -10 -23 -16 -17 -6 6 -6 18 2 32 6
12 14 20 16 17 3 -3 2 -17 -2 -32z m551 25 c-3 -5 -15 -10 -26 -10 -11 0 -17
5 -14 10 3 6 15 10 26 10 11 0 17 -4 14 -10z m-7900 -9 c57 -5 70 -9 73 -25 4
-17 -3 -18 -140 -11 -78 4 -146 9 -150 12 -5 2 -8 11 -8 19 0 15 88 18 225 5z
m3175 -7 c12 -13 6 -15 -50 -12 -40 2 -65 8 -68 16 -6 19 102 16 118 -4z m640
-5 c0 -5 -4 -9 -10 -9 -5 0 -10 7 -10 16 0 8 5 12 10 9 6 -3 10 -10 10 -16z
m238 5 c34 -4 62 -11 62 -16 0 -6 -42 -7 -112 -3 -125 7 -148 11 -148 27 0 7
23 8 68 4 37 -4 95 -9 130 -12z m706 -4 c5 -5 8 -11 5 -13 -2 -2 -57 -2 -121
1 -97 4 -118 7 -118 20 0 13 15 14 112 8 62 -4 117 -11 122 -16z m831 -2 c4
-4 4 -12 0 -18 -14 -23 -185 3 -185 29 0 8 176 -2 185 -11z m633 7 c2 -2 1 -8
-3 -14 -8 -14 -202 -15 -210 -1 -16 27 9 33 109 26 55 -4 102 -9 104 -11z
m780 9 c84 -11 60 -24 -42 -24 -71 0 -97 4 -106 15 -11 13 -5 15 41 15 30 0
78 -3 107 -6z m1008 -11 c-4 -10 -30 -78 -58 -151 -50 -129 -52 -132 -70 -114
-18 18 -17 22 28 150 46 129 47 132 76 132 25 0 29 -3 24 -17z m-6908 -12 c41
-1 52 -4 52 -17 0 -15 -15 -16 -147 -10 -82 4 -152 11 -157 16 -20 19 8 25
101 19 54 -4 122 -7 151 -8z m696 13 c31 -5 46 -11 46 -22 0 -12 -11 -14 -67
-9 -38 4 -98 7 -135 7 -54 0 -68 3 -68 15 0 12 17 15 89 15 48 0 109 -3 135
-6z m1534 0 c39 -5 52 -11 52 -23 0 -14 -10 -16 -73 -11 -74 7 -97 14 -97 31
0 10 43 12 118 3z m4871 0 c30 -6 32 -9 25 -38 -11 -55 -124 -410 -133 -419
-6 -6 -138 9 -148 17 -5 4 105 321 132 384 26 58 30 62 60 62 18 0 47 -3 64
-6z m-7856 -20 c81 -7 87 -8 87 -29 0 -21 -3 -22 -72 -18 -213 14 -223 16
-226 42 -4 24 -3 24 60 18 34 -4 102 -10 151 -13z m3148 6 c32 -18 21 -30 -26
-30 -38 0 -45 3 -45 20 0 23 37 28 71 10z m1367 -2 c-7 -20 -48 -23 -48 -4 0
11 9 16 26 16 16 0 24 -5 22 -12z m216 -9 c16 -15 4 -16 -86 -11 -62 3 -88 8
-88 17 0 10 19 12 83 8 45 -3 86 -9 91 -14z m606 1 c9 -17 8 -20 -12 -20 -30
0 -52 15 -44 29 11 18 44 13 56 -9z m-6067 -6 c63 -5 87 -10 87 -20 0 -28
-209 -10 -238 20 -16 18 -15 18 23 13 22 -3 79 -9 128 -13z m2287 6 c0 -5 -4
-10 -10 -10 -5 0 -10 5 -10 10 0 6 5 10 10 10 6 0 10 -4 10 -10z m273 -7 c4
-2 7 -11 7 -19 0 -13 -15 -15 -102 -9 -123 8 -138 11 -138 32 0 14 14 15 113
8 61 -4 115 -9 120 -12z m1525 1 c27 -3 42 -10 42 -20 0 -10 -14 -14 -57 -14
-92 0 -133 10 -133 31 0 19 13 19 148 3z m715 0 c71 -9 57 -24 -20 -23 -124 3
-206 13 -211 28 -4 11 12 12 89 7 52 -4 115 -9 142 -12z m2140 -3 c18 -18 6
-19 -90 -14 -76 5 -90 8 -86 21 5 12 21 14 86 9 43 -3 84 -10 90 -16z m937 -3
c0 -12 -7 -42 -16 -65 -14 -36 -19 -41 -31 -31 -15 12 -12 38 9 91 13 32 38
36 38 5z m-6061 3 c89 -8 95 -31 9 -31 -125 0 -228 12 -228 26 0 15 97 17 219
5z m3791 -7 c0 -12 -10 -14 -47 -12 -66 4 -70 28 -4 28 39 0 51 -4 51 -16z
m729 1 c13 -14 -20 -25 -72 -24 -84 0 -139 11 -145 28 -4 12 13 13 104 7 60
-4 111 -9 113 -11z m-5881 -30 c15 -14 -20 -17 -146 -10 -137 7 -170 14 -159
32 6 9 295 -12 305 -22z m675 19 c42 -4 57 -10 57 -21 0 -13 -10 -15 -57 -10
-32 4 -101 9 -153 13 -102 7 -114 10 -104 26 6 10 109 7 257 -8z m1527 1 c0
-8 -9 -15 -20 -15 -11 0 -20 7 -20 15 0 8 9 15 20 15 11 0 20 -7 20 -15z
m1568 -2 c2 -9 -7 -13 -27 -13 -21 0 -31 5 -31 16 0 19 51 16 58 -3z m1560 5
c23 -23 12 -26 -65 -21 -86 6 -88 7 -78 22 9 15 128 14 143 -1z m1287 2 c-3
-5 -21 -10 -40 -10 -19 0 -37 5 -40 10 -4 6 12 10 40 10 28 0 44 -4 40 -10z
m163 -2 c21 -21 14 -23 -58 -20 -65 3 -80 9 -63 25 11 12 108 8 121 -5z
m-4326 -21 c5 -9 -8 -13 -50 -15 -88 -5 -162 6 -162 25 0 14 13 15 102 9 63
-4 105 -11 110 -19z m1524 7 c36 -4 54 -10 51 -17 -3 -8 -28 -11 -81 -8 -91 4
-128 12 -134 30 -3 10 9 11 52 7 31 -3 81 -9 112 -12z m744 -11 c13 -14 1 -15
-115 -9 -140 8 -165 12 -165 28 0 17 262 -1 280 -19z m2248 10 c-2 -14 -15
-19 -60 -21 -49 -3 -58 0 -68 18 -10 19 -8 20 60 20 63 0 71 -2 68 -17z
m-6005 -9 c95 -5 117 -9 117 -22 0 -13 -15 -14 -107 -8 -164 10 -203 16 -203
33 0 11 9 13 38 9 20 -3 90 -8 155 -12z m741 7 c90 -8 104 -31 19 -31 -120 0
-223 12 -223 26 0 15 74 17 204 5z m3799 -6 c-2 -5 -27 -11 -57 -13 -42 -2
-55 1 -60 13 -5 14 3 16 57 13 35 -2 61 -7 60 -13z m617 6 c0 -24 -105 -29
-136 -6 -17 13 -12 14 59 15 42 0 77 -4 77 -9z m930 -6 c11 -13 8 -15 -19 -15
-30 0 -39 9 -24 23 11 11 30 8 43 -8z m-4499 -10 c0 -5 -12 -11 -26 -13 -18
-2 -25 1 -25 13 0 12 7 15 25 13 14 -2 26 -7 26 -13z m242 -2 c4 -2 7 -11 7
-20 0 -14 -11 -15 -77 -9 -42 3 -89 6 -105 6 -22 0 -28 5 -28 21 0 20 3 21 98
14 53 -4 100 -9 105 -12z m1302 6 c10 -15 -1 -23 -20 -15 -9 3 -13 10 -10 16
8 13 22 13 30 -1z m948 -6 c4 -2 7 -9 7 -14 0 -9 -228 -2 -239 7 -1 1 0 8 4
14 5 9 37 10 114 5 58 -4 109 -9 114 -12z m604 2 c8 -23 2 -25 -55 -18 -34 4
-52 10 -52 19 0 21 99 19 107 -1z m1842 -14 c0 -9 -8 -38 -17 -64 -16 -43 -19
-46 -35 -35 -17 13 -17 16 4 70 15 39 25 55 35 51 8 -3 14 -13 13 -22z m-7226
12 c70 -4 100 -10 104 -20 3 -8 4 -15 2 -17 -2 -2 -62 2 -134 10 -71 7 -142
13 -157 13 -16 1 -28 6 -28 11 0 12 73 13 213 3z m4094 -3 c23 0 33 -5 33 -15
0 -11 -12 -15 -52 -15 -105 0 -187 12 -193 28 -5 13 7 14 86 9 51 -4 107 -7
126 -7z m-2938 -22 c58 -21 -7 -25 -198 -10 -57 5 -86 11 -89 20 -4 12 19 13
129 7 74 -4 145 -12 158 -17z m701 2 c13 -20 -19 -24 -147 -15 -82 6 -103 10
-103 22 0 22 236 15 250 -7z m798 3 c-4 -22 -57 -30 -69 -11 -15 23 -10 28 32
28 33 0 40 -3 37 -17z m2905 11 c22 -4 37 -12 37 -20 0 -11 -17 -14 -70 -14
-38 0 -70 2 -70 4 0 2 -3 11 -6 20 -5 13 1 16 32 16 22 0 56 -3 77 -6z m715
-6 c7 -7 12 -15 12 -18 0 -3 -51 -4 -112 -2 -80 3 -117 8 -128 18 -12 12 2 14
101 14 76 0 119 -4 127 -12z m62 2 c0 -5 -5 -10 -11 -10 -5 0 -7 5 -4 10 3 6
8 10 11 10 2 0 4 -4 4 -10z m642 -27 c21 -20 38 -46 38 -57 0 -16 -9 -11 -50
29 -43 42 -54 65 -32 65 3 0 23 -17 44 -37z m-6664 12 c79 -7 146 -16 150 -19
14 -15 -16 -16 -162 -10 -143 6 -156 9 -156 26 0 21 -12 21 168 3z m2542 6
c14 -4 26 -15 28 -24 3 -16 -4 -17 -80 -11 -100 7 -108 9 -108 29 0 12 13 15
68 14 37 -1 78 -4 92 -8z m2015 -1 c-3 -5 -13 -10 -21 -10 -8 0 -14 5 -14 10
0 6 9 10 21 10 11 0 17 -4 14 -10z m240 -11 c5 -5 -34 -9 -98 -9 -99 0 -119 5
-99 24 9 10 184 -3 197 -15z m600 1 c18 -20 17 -20 -23 -20 -41 0 -59 11 -47
30 10 17 51 11 70 -10z m865 5 c11 -13 0 -15 -93 -15 -97 0 -127 7 -110 24 3
3 48 6 98 6 70 0 96 -4 105 -15z m110 -11 c0 -17 -41 -19 -58 -2 -20 20 -14
24 23 20 21 -3 35 -10 35 -18z m-4760 1 c0 -8 -4 -15 -10 -15 -5 0 -10 7 -10
15 0 8 5 15 10 15 6 0 10 -7 10 -15z m258 -2 c12 -3 22 -12 22 -20 0 -12 -16
-13 -97 -8 -125 8 -143 12 -143 31 0 14 12 16 98 9 53 -3 107 -9 120 -12z
m851 1 c2 -2 1 -9 -2 -17 -8 -20 -101 -7 -105 15 -3 15 3 16 50 11 29 -3 55
-7 57 -9z m1354 7 c95 -9 117 -14 105 -27 -9 -8 -261 17 -272 27 -12 11 39 11
167 0z m-2975 -11 c88 0 102 -2 102 -17 0 -14 -11 -15 -97 -10 -54 4 -117 7
-140 7 -33 0 -43 4 -43 16 0 14 7 15 38 10 20 -3 83 -6 140 -6z m3815 -5 c-4
-15 -56 -12 -61 3 -3 10 5 13 29 10 19 -2 33 -7 32 -13z m1602 3 c39 -18 30
-23 -32 -20 -69 4 -86 8 -78 22 8 14 78 13 110 -2z m-6052 -14 c70 -9 57 -24
-21 -24 -142 0 -252 12 -252 28 0 12 18 13 113 8 61 -4 133 -9 160 -12z m1501
8 c2 -4 1 -14 -4 -22 -7 -11 -12 -12 -21 -3 -6 6 -8 16 -5 22 8 13 23 14 30 3z
m221 -11 c33 -4 51 -11 53 -21 2 -13 -13 -14 -115 -7 -64 4 -118 9 -120 11 -2
2 -1 10 2 18 6 15 66 15 180 -1z m720 -2 c4 -11 5 -23 2 -25 -3 -3 -39 -2 -81
2 -65 6 -76 9 -76 25 0 17 9 19 74 19 67 0 75 -2 81 -21z m1583 0 c43 -16 21
-26 -50 -22 -156 8 -198 14 -198 28 0 11 22 12 113 8 61 -3 122 -10 135 -14z
m630 9 c22 -22 13 -24 -65 -16 -43 3 -84 7 -90 7 -7 1 -13 6 -13 11 0 15 153
13 168 -2z m407 2 c-3 -5 -19 -10 -35 -10 -16 0 -32 5 -35 10 -4 6 10 10 35
10 25 0 39 -4 35 -10z m1451 -2 c12 -19 4 -89 -13 -121 -14 -28 -15 -28 -34
-11 -24 22 -24 34 2 95 22 50 32 58 45 37z m-3928 -8 c17 0 23 -5 20 -17 -6
-34 -118 -21 -118 13 0 14 7 15 38 10 20 -3 47 -6 60 -6z m2680 -7 c2 -8 -6
-13 -22 -13 -17 0 -26 5 -26 16 0 19 41 16 48 -3z m230 1 c27 -3 42 -10 39
-17 -5 -17 -194 -22 -213 -6 -31 26 -15 35 59 32 39 -2 91 -6 115 -9z m-5225
-10 c103 -5 127 -9 127 -21 0 -13 -15 -14 -97 -9 -178 12 -213 17 -213 32 0 9
9 12 28 9 15 -2 84 -7 155 -11z m752 7 c51 -4 71 -10 73 -21 2 -13 -12 -15
-85 -12 -141 4 -193 12 -193 28 0 15 71 17 205 5z m845 -15 c0 -16 -27 -29
-41 -20 -19 11 -9 34 16 34 15 0 25 -6 25 -14z m227 -2 c17 -2 34 -12 37 -21
6 -14 -5 -15 -104 -11 -61 3 -114 8 -117 11 -3 4 -3 13 0 21 5 12 20 14 79 10
40 -3 87 -7 105 -10z m681 4 c23 -23 11 -29 -60 -26 -60 2 -73 6 -76 21 -3 15
5 17 60 17 37 0 69 -5 76 -12z m1550 -2 c2 -3 2 -12 -2 -21 -5 -14 -17 -15
-78 -10 -123 10 -138 14 -131 32 5 14 20 15 106 10 55 -4 102 -9 105 -11z
m480 2 c-3 -8 -21 -13 -43 -13 -22 0 -40 5 -42 13 -3 8 9 12 42 12 33 0 45 -4
43 -12z m173 -14 c9 -12 5 -14 -27 -14 -66 0 -115 11 -105 24 13 15 117 8 132
-10z m813 17 c42 -4 71 -11 74 -18 3 -10 -24 -13 -111 -13 -99 0 -118 3 -138
20 l-24 19 65 -1 c36 0 96 -3 134 -7z m-2855 -7 c33 -7 42 -28 15 -38 -9 -3
-37 -6 -63 -6 -41 0 -49 3 -59 25 -11 25 -11 25 32 25 24 0 58 -3 75 -6z
m-1581 -11 c73 -5 82 -8 82 -26 0 -16 -5 -18 -32 -14 -18 3 -77 9 -130 13 -74
5 -98 10 -98 20 0 16 45 18 178 7z m4782 -20 c13 -12 0 -13 -95 -11 -96 3
-110 5 -113 21 -3 16 4 17 95 11 63 -4 103 -11 113 -21z m-5390 -10 c14 -14 3
-15 -110 -9 -146 8 -190 14 -190 29 0 17 282 -1 300 -20z m1498 15 c-7 -20
-64 -22 -71 -4 -5 13 2 16 34 16 28 0 39 -4 37 -12z m874 -11 c15 -23 8 -29
-23 -23 -17 3 -44 6 -60 6 -23 0 -29 5 -29 21 0 20 3 21 52 15 29 -4 56 -13
60 -19z m2186 -4 c3 -10 -12 -13 -52 -13 -40 0 -56 4 -56 13 0 8 2 16 5 18 9
10 99 -6 103 -18z m-3808 7 c0 -5 -2 -10 -4 -10 -3 0 -8 5 -11 10 -3 6 -1 10
4 10 6 0 11 -4 11 -10z m964 -6 c9 -8 16 -18 16 -21 0 -7 -190 3 -197 11 -16
16 17 26 87 26 58 0 83 -4 94 -16z m822 6 c27 0 34 -4 34 -20 0 -18 -7 -20
-70 -20 -58 0 -71 3 -80 19 -16 31 -13 34 36 27 26 -3 62 -6 80 -6z m1879 0
c-3 -5 -13 -10 -21 -10 -8 0 -12 5 -9 10 3 6 13 10 21 10 8 0 12 -4 9 -10z
m-4162 -15 c87 -6 107 -10 107 -22 0 -14 -17 -15 -142 -9 -78 4 -145 9 -149
12 -5 2 -5 12 -2 20 4 11 15 14 42 10 20 -3 84 -8 144 -11z m751 7 c22 -4 41
-13 44 -21 4 -11 -17 -12 -124 -6 -134 7 -148 10 -139 26 7 10 161 11 219 1z
m844 -9 c-2 -13 -14 -19 -41 -21 -32 -3 -37 0 -37 17 0 18 6 21 41 21 33 0 40
-3 37 -17z m2120 5 c19 -19 14 -28 -18 -28 -23 0 -30 4 -30 20 0 23 29 27 48
8z m805 6 c3 -3 3 -12 0 -20 -4 -10 -24 -14 -72 -14 -62 0 -91 10 -91 32 0 9
154 11 163 2z m946 -191 c3 -31 -32 -7 -118 82 -125 127 -110 147 19 23 53
-51 98 -99 99 -105z m-3661 164 c30 -24 10 -30 -79 -24 -50 3 -93 8 -96 11 -3
3 -3 12 1 21 5 13 18 15 83 9 43 -4 84 -11 91 -17z m662 3 c10 -19 8 -20 -48
-20 -63 0 -74 4 -65 26 3 9 21 14 54 14 38 0 51 -4 59 -20z m1320 4 c0 -14 -3
-14 -15 -4 -8 7 -15 14 -15 16 0 2 7 4 15 4 8 0 15 -7 15 -16z m208 1 c15 -15
-20 -25 -89 -25 -74 0 -79 1 -79 21 0 21 3 22 82 15 45 -4 84 -9 86 -11z m627
-5 c18 -20 17 -20 -23 -20 -35 0 -42 3 -42 20 0 14 7 20 23 20 13 0 32 -9 42
-20z m-3765 0 c0 -5 -4 -10 -10 -10 -5 0 -10 5 -10 10 0 6 5 10 10 10 6 0 10
-4 10 -10z m216 0 c57 0 73 -3 78 -16 4 -9 4 -19 2 -22 -3 -2 -62 -1 -131 3
-117 7 -125 8 -125 27 0 19 4 20 53 14 28 -3 84 -6 123 -6z m1561 4 c53 -6 60
-9 56 -25 -5 -16 -15 -19 -76 -19 -51 0 -75 4 -89 17 -38 34 -14 40 109 27z
m2233 -15 c0 -21 -3 -22 -87 -15 -55 5 -94 13 -103 22 -12 12 -1 14 88 14 98
0 102 -1 102 -21z m-4441 -9 c14 -3 27 -12 29 -20 4 -11 -11 -12 -79 -7 -46 4
-110 7 -141 7 -51 0 -58 2 -58 20 0 20 4 20 113 14 61 -4 123 -10 136 -14z
m1524 -6 c-4 -11 -17 -14 -46 -12 -56 4 -60 26 -5 30 52 4 59 2 51 -18z m-715
-1 c-2 -10 -10 -18 -18 -18 -8 0 -16 8 -18 18 -2 12 3 17 18 17 15 0 20 -5 18
-17z m910 -5 c25 -21 10 -28 -60 -28 -78 0 -104 9 -96 32 5 11 22 13 74 10 38
-2 75 -9 82 -14z m652 18 c0 -2 3 -11 6 -20 5 -13 -2 -16 -35 -16 -34 0 -41 3
-41 20 0 16 7 20 35 20 19 0 35 -2 35 -4z m118 -24 c3 -10 -5 -13 -29 -10 -22
2 -35 9 -37 19 -2 14 3 16 29 10 18 -4 34 -12 37 -19z m1232 8 c0 -16 -7 -20
-30 -20 -32 0 -37 9 -18 28 19 19 48 15 48 -8z m152 10 c29 0 36 -3 32 -15 -8
-20 -154 -22 -154 -2 0 23 14 29 50 23 19 -3 52 -6 72 -6z m632 4 c23 -9 20
-24 -4 -24 -11 0 -20 7 -20 15 0 17 2 18 24 9z m199 0 c56 -5 77 -11 77 -21 0
-11 -21 -13 -107 -11 -93 3 -108 5 -111 21 -4 20 16 21 141 11z m-3645 -26
c31 -26 10 -31 -99 -25 -61 3 -113 8 -115 10 -3 2 -2 11 1 19 4 11 25 13 103
10 53 -2 103 -9 110 -14z m-696 -4 c9 -3 19 -11 22 -19 4 -12 -7 -15 -67 -14
-40 1 -106 4 -147 8 -62 5 -75 9 -78 25 -4 18 2 18 125 12 70 -4 135 -9 145
-12z m1480 10 c53 -9 40 -34 -18 -34 -33 0 -46 5 -54 20 -9 17 -8 20 12 20 13
0 40 -3 60 -6z m-682 -8 c0 -16 -14 -36 -26 -36 -8 0 -14 2 -14 4 0 2 -3 11
-6 20 -5 12 0 16 20 16 14 0 26 -2 26 -4z m912 -20 c16 -24 5 -28 -71 -25 -85
4 -97 9 -88 34 5 13 19 14 79 9 40 -4 76 -12 80 -18z m1996 7 c-3 -18 -38 -29
-64 -19 -26 10 -3 36 33 36 27 0 34 -4 31 -17z m-2656 -15 c13 -23 -5 -26
-114 -21 -100 5 -108 7 -108 26 0 19 4 20 107 13 68 -4 110 -11 115 -18z
m2849 -4 l24 -27 -40 6 c-22 4 -61 7 -87 7 -41 0 -48 3 -48 20 0 18 7 20 63
20 56 0 66 -3 88 -26z m159 -5 c0 -16 -7 -19 -42 -19 -37 0 -78 21 -78 39 0 3
27 4 60 3 51 -3 60 -7 60 -23z m-3738 11 c48 0 59 -3 69 -21 l11 -22 -148 8
c-82 4 -152 9 -156 11 -4 3 -4 12 -1 21 5 13 18 15 87 9 45 -3 107 -6 138 -6z
m1561 -15 c-4 -15 -105 -19 -114 -4 -4 7 -6 16 -4 19 6 10 120 -5 118 -15z
m677 10 c0 -8 -8 -15 -19 -15 -10 0 -24 7 -31 15 -11 13 -8 15 19 15 21 0 31
-5 31 -15z m-1412 -12 c-5 -26 -44 -29 -51 -4 -4 18 0 21 25 21 23 0 29 -4 26
-17z m3069 -5 c13 -12 23 -25 23 -30 0 -8 -139 -1 -148 8 -2 1 -1 12 3 23 9
30 89 30 122 -1z m553 2 c0 -11 -7 -20 -15 -20 -15 0 -21 21 -8 33 12 13 23 7
23 -13z m-3442 4 c41 -5 63 -12 67 -22 3 -8 3 -17 1 -20 -3 -2 -50 -1 -105 3
-90 6 -101 9 -101 26 0 21 29 24 138 13z m722 2 c0 -2 3 -11 6 -20 5 -13 -1
-16 -27 -16 -64 0 -108 11 -102 26 4 10 23 14 64 14 32 0 59 -2 59 -4z m2357
-10 c3 -2 2 -10 -2 -17 -11 -17 -125 -3 -145 17 -14 15 -8 16 63 11 44 -3 81
-8 84 -11z m459 -23 c-7 -22 -21 -40 -31 -42 -15 -3 -17 2 -11 30 6 33 20 49
43 49 9 0 9 -9 -1 -37z m-4135 6 c5 -8 9 -18 9 -22 0 -8 -260 1 -269 9 -2 2
-1 11 3 20 6 15 20 16 127 12 88 -4 124 -9 130 -19z m1427 3 c3 -10 -4 -13
-24 -10 -15 2 -29 9 -32 16 -3 10 4 13 24 10 15 -2 29 -9 32 -16z m772 -2
c-17 -13 -41 -20 -72 -20 -51 0 -51 0 -42 24 5 12 21 16 73 16 l66 0 -25 -20z
m1575 0 c18 -20 17 -20 -23 -20 -28 0 -42 4 -42 13 0 33 38 37 65 7z m-3005
-10 c0 -15 -7 -20 -25 -20 -14 0 -25 2 -25 4 0 2 -3 11 -6 20 -5 13 1 16 25
16 24 0 31 -4 31 -20z m3465 9 c11 -16 -5 -79 -21 -86 -7 -3 -20 -3 -28 0 -12
5 -11 13 2 51 16 44 34 57 47 35z m-3962 -15 c53 -5 70 -11 78 -26 10 -19 7
-19 -128 -12 -76 4 -140 8 -141 10 -2 1 -1 12 3 24 6 20 12 21 63 16 32 -3 88
-8 125 -12z m746 -9 c8 -8 12 -17 9 -20 -3 -4 -54 -3 -112 1 -97 6 -106 8
-106 27 0 19 4 20 97 14 66 -5 102 -12 112 -22z m1424 18 c-7 -2 -21 -2 -30 0
-10 3 -4 5 12 5 17 0 24 -2 18 -5z m-1303 -34 c0 -17 -5 -20 -32 -17 -22 2
-34 9 -36 21 -3 14 4 17 32 17 30 0 36 -4 36 -21z m-730 1 c0 -5 -4 -10 -10
-10 -5 0 -10 5 -10 10 0 6 5 10 10 10 6 0 10 -4 10 -10z m952 -12 c16 -25 7
-31 -38 -24 -26 3 -69 6 -95 6 -43 0 -49 2 -49 21 0 21 3 22 87 16 54 -4 89
-11 95 -19z m-674 -10 c22 -18 13 -29 -20 -24 -18 3 -77 8 -130 12 -78 5 -98
9 -98 21 0 13 16 14 118 8 64 -4 123 -12 130 -17z m770 10 c19 -19 14 -28 -13
-28 -14 0 -25 2 -25 4 0 2 -3 11 -6 20 -7 19 26 22 44 4z m-698 -18 c0 -5 -4
-10 -10 -10 -5 0 -10 5 -10 10 0 6 5 10 10 10 6 0 10 -4 10 -10z m183 -5 c94
-6 109 -10 118 -27 11 -20 10 -20 -127 -13 -77 4 -141 9 -142 10 -2 2 -1 13 3
25 4 13 13 19 23 16 9 -2 65 -7 125 -11z m187 -29 c0 -11 -19 -15 -25 -6 -3 5
1 10 9 10 9 0 16 -2 16 -4z m272 -18 c4 -7 8 -15 8 -18 0 -9 -235 1 -244 10
-4 4 -5 14 -1 21 11 17 225 5 237 -13z m76 -9 c-2 -6 -8 -10 -13 -10 -5 0 -11
4 -13 10 -2 6 4 11 13 11 9 0 15 -5 13 -11z m2916 -45 c40 -6 46 -10 46 -30 0
-29 -13 -30 -95 -9 -67 18 -70 19 -60 34 7 12 41 14 109 5z m-2608 -48 c9 -23
35 -28 55 -10 31 28 84 10 138 -45 28 -29 80 -64 134 -91 83 -43 87 -47 85
-75 -3 -26 -9 -31 -56 -45 -68 -20 -114 -57 -141 -115 -36 -77 -31 -123 33
-278 63 -153 489 -1113 657 -1480 60 -130 109 -244 109 -252 0 -11 -12 -15
-42 -15 -24 0 -53 -3 -65 -6 -22 -6 -23 -4 -23 73 0 103 -17 166 -86 310 -82
172 -910 1994 -918 2021 -7 21 -5 22 54 22 43 0 62 -4 66 -14z m917 -376 c547
-43 729 -60 752 -69 13 -6 36 -46 67 -122 26 -63 99 -237 162 -387 260 -616
414 -1032 381 -1032 -3 0 -24 12 -46 27 -34 22 -53 27 -103 27 -33 0 -74 -3
-91 -7 -28 -7 -33 -3 -80 61 -57 75 -90 89 -134 52 -31 -27 -40 -73 -42 -215
0 -66 -4 -158 -7 -205 l-7 -85 -295 -27 c-162 -15 -298 -24 -302 -20 -7 8
-500 1082 -671 1462 -168 375 -180 406 -172 456 11 75 63 114 153 114 29 0
225 -13 435 -30z m1142 -101 c153 -12 195 -24 220 -63 23 -34 173 -372 335
-751 154 -363 115 -272 601 -1395 l383 -885 4 -201 3 -201 -68 -6 c-37 -4
-148 -7 -245 -7 l-178 0 0 173 c0 94 -5 215 -10 267 -8 84 -15 106 -57 189
-34 66 -44 96 -35 99 25 8 41 33 51 84 11 47 10 55 -9 79 -11 16 -30 52 -44
81 -45 100 -119 148 -230 148 l-66 0 -56 68 c-76 92 -197 260 -234 326 l-31
54 28 14 c21 10 29 22 31 45 4 38 -13 73 -33 73 -13 0 -15 29 -15 183 0 132
-4 199 -15 242 -9 33 -97 255 -197 495 -179 431 -358 881 -358 902 0 6 15 8
43 4 23 -3 105 -10 182 -17z m182 -1981 l33 -32 0 -143 0 -143 -25 0 c-22 0
-25 3 -19 24 7 30 -29 60 -99 81 -68 20 -105 19 -150 -5 -48 -26 -49 -26 -69
11 -28 48 -24 123 9 175 l27 43 76 6 c41 3 84 7 95 9 66 11 89 6 122 -26z
m-514 -33 c-3 -14 3 -38 16 -58 25 -41 28 -35 -110 -193 l-98 -111 -67 -7
c-36 -4 -68 -6 -69 -4 -7 8 -155 341 -155 349 0 5 12 9 28 10 15 0 110 8 212
18 261 26 248 26 243 -4z m-570 -207 c42 -94 75 -173 73 -175 -5 -5 -267 -32
-313 -33 l-33 0 0 184 0 185 48 4 c26 2 70 4 97 5 l50 1 78 -171z m-393 -38
c0 -136 -3 -182 -12 -185 -14 -4 -910 -81 -1072 -92 -70 -4 -97 -3 -92 5 3 6
1 22 -6 37 -7 16 -8 29 -2 35 6 6 59 15 119 20 278 27 273 26 360 69 45 22
149 88 230 146 179 127 214 140 393 144 l82 1 0 -180z m1729 -64 l101 -144
-31 -67 c-32 -67 -32 -68 -27 -194 4 -81 1 -138 -6 -158 -14 -40 -82 -114 -99
-107 -7 2 -25 25 -40 50 l-28 47 20 21 c25 26 27 58 6 90 -28 43 -46 131 -33
167 10 29 9 34 -14 53 -14 12 -29 31 -33 44 -4 13 -28 37 -53 53 -25 16 -39
29 -31 30 7 1 52 2 99 3 113 2 132 13 128 74 -3 43 -5 47 -33 52 -29 5 -30 7
-33 68 -2 34 -1 62 1 62 2 0 50 -65 106 -144z m-722 -33 c-3 -2 -32 -3 -65 -1
l-61 3 62 69 62 70 3 -68 c2 -38 1 -70 -1 -73z m-2320 -157 l1 -44 -56 -6
c-92 -10 -729 -64 -957 -81 -115 -8 -286 -22 -380 -30 -205 -18 -713 -58
-1075 -85 -374 -29 -1033 -75 -1233 -87 l-108 -6 3 44 3 44 90 7 c49 5 250 22
445 38 394 34 423 36 1895 150 572 45 1083 85 1135 89 52 5 127 9 165 10 l70
1 2 -44z m2343 9 c9 -11 22 -14 48 -9 l36 7 -25 -30 c-82 -103 -245 -292 -252
-292 -9 -1 -112 209 -122 249 -5 20 0 31 20 50 22 21 40 26 108 31 151 11 174
10 187 -6z m-476 -73 l24 -48 -65 -77 c-76 -89 -110 -113 -178 -121 -147 -18
-2343 -99 -3535 -131 -683 -18 -1150 -33 -1440 -45 -200 -8 -371 -13 -437 -11
-13 1 -23 7 -23 15 0 17 2 17 485 56 204 16 498 41 655 54 309 26 353 30 1055
81 259 19 549 42 645 50 96 8 236 19 310 25 237 18 2189 178 2355 193 124 11
122 12 149 -41z m1548 21 c22 -25 53 -91 45 -99 -1 -2 -29 26 -61 61 -52 59
-55 65 -33 65 13 0 35 -12 49 -27z m-59 -208 c63 -88 122 -175 131 -193 21
-41 35 -207 36 -413 l0 -146 -137 -6 c-76 -4 -243 -10 -370 -13 -203 -6 -233
-5 -233 8 0 33 40 167 66 222 18 39 68 103 151 194 149 164 163 190 163 300 0
44 4 83 9 87 5 3 17 29 27 58 20 63 23 69 34 65 5 -2 60 -75 123 -163z m-1317
-191 c4 -16 -10 -38 -58 -91 -35 -38 -72 -76 -82 -83 -28 -18 -183 -29 -409
-30 -260 0 -892 -16 -1392 -36 -220 -8 -665 -19 -990 -24 -1253 -19 -2623 -33
-2639 -27 -13 5 -16 22 -16 90 l0 84 267 7 c400 10 732 21 1878 60 1267 43
2492 83 2835 92 173 5 263 11 280 19 14 7 65 57 115 110 l89 98 58 -124 c32
-68 61 -133 64 -145z m-5966 131 l0 -45 -70 0 c-69 0 -70 0 -70 27 0 44 26 63
87 63 l53 0 0 -45z m-260 -24 c0 -30 -4 -40 -20 -44 -18 -5 -20 0 -20 39 0 37
3 44 20 44 17 0 20 -7 20 -39z m-12 -280 c-3 -60 -14 -69 -64 -57 -22 6 -24
12 -24 60 0 53 1 55 38 73 36 18 37 18 45 -2 4 -10 7 -44 5 -74z m6292 59 c7
-16 10 -36 7 -43 -3 -7 1 -24 9 -38 7 -13 13 -41 14 -61 0 -58 -31 -191 -50
-211 -34 -36 -149 -38 -1850 -27 -2188 14 -3645 32 -3737 46 -27 4 -33 10 -33
29 0 41 25 55 98 55 127 0 1690 20 2392 30 947 14 2099 39 2132 46 16 3 200 9
410 13 329 6 387 9 414 24 17 9 62 50 99 92 37 41 71 75 75 75 4 0 13 -13 20
-30z m-5716 -36 c3 -9 6 -43 6 -76 l0 -61 -57 7 c-51 6 -62 11 -90 44 -21 24
-32 46 -30 62 2 22 8 26 52 31 93 11 113 10 119 -7z m-754 -109 l0 -105 34
-38 c35 -38 35 -38 41 -163 4 -68 8 -171 9 -229 1 -58 6 -134 11 -169 l8 -64
-44 7 c-24 4 -68 18 -96 31 l-53 24 0 60 0 61 -51 0 -51 0 7 100 c4 55 15 189
24 297 l16 198 46 3 c45 3 47 4 54 40 6 34 19 51 38 52 4 0 7 -47 7 -105z
m115 -70 c0 -10 -6 -20 -12 -22 -8 -3 -13 5 -13 22 0 17 5 25 13 23 6 -3 12
-13 12 -23z m2755 -226 c1160 -14 3547 -17 3579 -5 20 8 22 6 19 -10 -4 -21
-17 -25 -173 -49 -119 -18 -178 -45 -330 -145 l-110 -73 -560 12 c-308 6 -726
16 -930 21 -203 5 -566 14 -805 20 -239 6 -601 15 -805 20 -203 5 -563 14
-800 20 -968 24 -1094 28 -1104 35 -7 3 -11 42 -11 92 l0 86 553 -7 c303 -3
968 -11 1477 -17z m5649 -271 c-1 -68 -4 -161 -7 -208 l-7 -85 -36 -3 c-26 -2
-47 4 -74 22 -87 59 -168 58 -281 -5 l-74 -40 0 214 c0 117 3 217 7 220 3 4
111 7 240 7 l233 0 -1 -122z m-624 -103 l0 -210 -140 -6 c-321 -14 -985 -32
-990 -27 -3 3 -3 24 1 47 6 39 9 42 32 36 39 -10 122 25 167 70 34 34 128 202
149 268 4 14 19 17 83 18 43 1 204 5 358 9 154 4 294 6 310 6 l30 -1 0 -210z
m-1397 128 l3 -43 -185 0 c-102 0 -186 4 -186 8 0 10 127 70 160 76 14 2 66 3
115 2 l90 -1 3 -42z m-5023 -13 c598 -13 1640 -38 2105 -50 1346 -35 1967 -50
2055 -50 43 0 65 -4 60 -9 -20 -20 -148 -31 -450 -41 -170 -5 -434 -14 -585
-20 -151 -6 -538 -15 -860 -20 -322 -6 -846 -15 -1165 -20 -319 -5 -845 -13
-1169 -17 -578 -6 -589 -6 -581 13 8 18 14 83 16 182 l2 42 61 0 c33 0 264 -5
511 -10z m5149 -232 c-3 -73 -7 -134 -8 -134 -3 -4 -744 -25 -1062 -31 l-371
-6 -6 44 c-3 24 -4 46 -2 48 3 2 98 8 212 13 278 12 353 32 525 144 l73 47
295 -5 c162 -3 304 -2 315 2 11 5 24 9 28 9 5 1 5 -59 1 -131z m-1594 -121 l0
-54 -172 -7 c-215 -8 -833 -21 -1933 -41 -467 -9 -1073 -20 -1345 -25 -272 -5
-536 -10 -587 -10 l-91 0 1 50 c2 47 4 50 32 54 17 3 316 10 665 16 349 6 835
15 1080 20 407 9 967 20 1940 39 201 4 375 8 388 9 20 2 22 -2 22 -51z"/>
</g>
</svg>
