<svg width="15" height="15" viewBox="0 0 15 15" fill="none" xmlns="http://www.w3.org/2000/svg">
<path d="M4.67739 14.7667C4.28102 14.7667 3.94171 14.6256 3.65945 14.3433C3.37719 14.0611 3.23606 13.7217 3.23606 13.3254C3.23606 12.929 3.37719 12.5897 3.65945 12.3074C3.94171 12.0252 4.28102 11.884 4.67739 11.884C5.07375 11.884 5.41307 12.0252 5.69533 12.3074C5.97759 12.5897 6.11872 12.929 6.11872 13.3254C6.11872 13.7217 5.97759 14.0611 5.69533 14.3433C5.41307 14.6256 5.07375 14.7667 4.67739 14.7667ZM11.884 14.7667C11.4877 14.7667 11.1484 14.6256 10.8661 14.3433C10.5838 14.0611 10.4427 13.7217 10.4427 13.3254C10.4427 12.929 10.5838 12.5897 10.8661 12.3074C11.1484 12.0252 11.4877 11.884 11.884 11.884C12.2804 11.884 12.6197 12.0252 12.902 12.3074C13.1842 12.5897 13.3254 12.929 13.3254 13.3254C13.3254 13.7217 13.1842 14.0611 12.902 14.3433C12.6197 14.6256 12.2804 14.7667 11.884 14.7667ZM3.38019 1.79473H14.01C14.2863 1.79473 14.4965 1.91784 14.6406 2.16407C14.7847 2.41029 14.7907 2.65952 14.6586 2.91176L12.1002 7.52402C11.9681 7.76424 11.791 7.95041 11.5688 8.08253C11.3465 8.21466 11.1033 8.28072 10.8391 8.28072H5.47012L4.67739 9.72205H13.3254V11.1634H4.67739C4.13689 11.1634 3.72851 10.9262 3.45226 10.4517C3.176 9.97728 3.16399 9.50585 3.41622 9.03742L4.38912 7.27179L1.79473 1.79473H0.353394V0.353394H2.69556L3.38019 1.79473Z" fill="#1C1B1F"/>
</svg>
